<?xml version="1.0" encoding="utf-8" standalone="no"?>
<!DOCTYPE svg PUBLIC "-//W3C//DTD SVG 1.1//EN"
  "http://www.w3.org/Graphics/SVG/1.1/DTD/svg11.dtd">
<svg xmlns:xlink="http://www.w3.org/1999/xlink" width="475.2pt" height="460.8pt" viewBox="0 0 475.2 460.8" xmlns="http://www.w3.org/2000/svg" version="1.1">
 <metadata>
  <rdf:RDF xmlns:dc="http://purl.org/dc/elements/1.1/" xmlns:cc="http://creativecommons.org/ns#" xmlns:rdf="http://www.w3.org/1999/02/22-rdf-syntax-ns#">
   <cc:Work>
    <dc:type rdf:resource="http://purl.org/dc/dcmitype/StillImage"/>
    <dc:date>2026-06-04T06:14:48.195660</dc:date>
    <dc:format>image/svg+xml</dc:format>
    <dc:creator>
     <cc:Agent>
      <dc:title>Matplotlib v3.10.8, https://matplotlib.org/</dc:title>
     </cc:Agent>
    </dc:creator>
   </cc:Work>
  </rdf:RDF>
 </metadata>
 <defs>
  <style type="text/css">*{stroke-linejoin: round; stroke-linecap: butt}</style>
 </defs>
 <g id="figure_1">
  <g id="patch_1">
   <path d="M 0 460.8 
L 475.2 460.8 
L 475.2 0 
L 0 0 
z
" style="fill: #ffffff"/>
  </g>
  <g id="axes_1">
   <g id="line2d_1">
    <path d="M 70.496471 217.545882 
L 404.703529 217.545882 
" clip-path="url(#p6663c68255)" style="fill: none; stroke: #999999; stroke-width: 0.5; stroke-linecap: square"/>
   </g>
   <g id="line2d_2">
    <path d="M 237.6 384.649412 
L 237.6 50.442353 
" clip-path="url(#p6663c68255)" style="fill: none; stroke: #999999; stroke-width: 0.5; stroke-linecap: square"/>
   </g>
   <g id="line2d_3">
    <path d="M 366.141176 217.545882 
L 365.997764 211.475599 
L 365.567845 205.418861 
L 364.85238 199.389184 
L 363.852966 193.400021 
L 362.571832 187.464736 
L 361.011836 181.596575 
L 359.176461 175.808631 
L 357.069801 170.113818 
L 354.696557 164.524845 
L 352.062025 159.054183 
L 349.172084 153.714039 
L 346.033181 148.516328 
L 342.652322 143.47265 
L 339.037049 138.594258 
L 335.195432 133.892037 
L 331.13604 129.376482 
L 326.867933 125.057666 
L 322.400635 120.945228 
L 317.744113 117.048344 
L 312.908758 113.375709 
L 307.90536 109.935518 
L 302.745083 106.735449 
L 297.439442 103.78264 
L 292.000276 101.083682 
L 286.439721 98.644597 
L 280.770186 96.470827 
L 275.004322 94.567223 
L 269.154993 92.938032 
L 263.235254 91.58689 
L 257.258312 90.516812 
L 251.237504 89.730185 
L 245.186266 89.228765 
L 239.1181 89.013671 
L 233.046547 89.085382 
L 226.985154 89.443739 
L 220.947447 90.087942 
L 214.946898 91.016554 
L 208.996897 92.227502 
L 203.110721 93.718084 
L 197.301504 95.484974 
L 191.582209 97.52423 
L 185.965598 99.831302 
L 180.464202 102.40104 
L 175.0903 105.227712 
L 169.855881 108.305009 
L 164.772625 111.626066 
L 159.851876 115.183471 
L 155.104613 118.969287 
L 150.54143 122.975065 
L 146.172508 127.191868 
L 142.007597 131.610287 
L 138.05599 136.220461 
L 134.326505 141.012104 
L 130.827463 145.974523 
L 127.566673 151.096647 
L 124.551409 156.367045 
L 121.788402 161.773956 
L 119.283815 167.305317 
L 117.043238 172.948783 
L 115.07167 178.691764 
L 113.373511 184.521443 
L 111.95255 190.424813 
L 110.811958 196.3887 
L 109.954279 202.399797 
L 109.381427 208.444691 
L 109.094682 214.509894 
L 109.094682 220.581871 
L 109.381427 226.647073 
L 109.954279 232.691967 
L 110.811958 238.703065 
L 111.95255 244.666952 
L 113.373511 250.570322 
L 115.07167 256.400001 
L 117.043238 262.142981 
L 119.283815 267.786448 
L 121.788402 273.317809 
L 124.551409 278.72472 
L 127.566673 283.995118 
L 130.827463 289.117241 
L 134.326505 294.079661 
L 138.05599 298.871304 
L 142.007597 303.481478 
L 146.172508 307.899896 
L 150.54143 312.116699 
L 155.104613 316.122478 
L 159.851876 319.908294 
L 164.772625 323.465699 
L 169.855881 326.786755 
L 175.0903 329.864053 
L 180.464202 332.690725 
L 185.965598 335.260463 
L 191.582209 337.567534 
L 197.301504 339.606791 
L 203.110721 341.373681 
L 208.996897 342.864263 
L 214.946898 344.075211 
L 220.947447 345.003823 
L 226.985154 345.648026 
L 233.046547 346.006383 
L 239.1181 346.078094 
L 245.186266 345.863 
L 251.237504 345.36158 
L 257.258312 344.574953 
L 263.235254 343.504875 
L 269.154993 342.153733 
L 275.004322 340.524542 
L 280.770186 338.620938 
L 286.439721 336.447168 
L 292.000276 334.008082 
L 297.439442 331.309124 
L 302.745083 328.356316 
L 307.90536 325.156246 
L 312.908758 321.716056 
L 317.744113 318.043421 
L 322.400635 314.146537 
L 326.867933 310.034099 
L 331.13604 305.715283 
L 335.195432 301.199727 
L 339.037049 296.497507 
L 342.652322 291.619115 
L 346.033181 286.575436 
L 349.172084 281.377726 
L 352.062025 276.037581 
L 354.696557 270.566919 
L 357.069801 264.977946 
L 359.176461 259.283134 
L 361.011836 253.49519 
L 362.571832 247.627028 
L 363.852966 241.691744 
L 364.85238 235.702581 
L 365.567845 229.672903 
L 365.997764 223.616165 
L 366.141176 217.545882 
L 366.141176 217.545882 
" clip-path="url(#p6663c68255)" style="fill: none; stroke: #999999; stroke-linecap: square"/>
   </g>
   <g id="text_1">
    <!-- A₁ (0°) -->
    <g style="fill: #56b4e9" transform="translate(366.891575 220.719164) scale(0.115 -0.115)">
     <defs>
      <path id="DejaVuSans-Bold-41" d="M 3419 850 
L 1538 850 
L 1241 0 
L 31 0 
L 1759 4666 
L 3194 4666 
L 4922 0 
L 3713 0 
L 3419 850 
z
M 1838 1716 
L 3116 1716 
L 2478 3572 
L 1838 1716 
z
" transform="scale(0.015625)"/>
      <path id="DejaVuSans-Bold-2081" d="M 441 466 
L 1088 466 
L 1088 2094 
L 384 1932 
L 384 2432 
L 1100 2585 
L 1806 2585 
L 1806 466 
L 2444 466 
L 2444 -24 
L 441 -24 
L 441 466 
z
" transform="scale(0.015625)"/>
      <path id="DejaVuSans-Bold-20" transform="scale(0.015625)"/>
      <path id="DejaVuSans-Bold-28" d="M 2413 -844 
L 1484 -844 
Q 1006 -72 778 623 
Q 550 1319 550 2003 
Q 550 2688 779 3389 
Q 1009 4091 1484 4856 
L 2413 4856 
Q 2013 4116 1813 3408 
Q 1613 2700 1613 2009 
Q 1613 1319 1811 609 
Q 2009 -100 2413 -844 
z
" transform="scale(0.015625)"/>
      <path id="DejaVuSans-Bold-30" d="M 2944 2338 
Q 2944 3213 2780 3570 
Q 2616 3928 2228 3928 
Q 1841 3928 1675 3570 
Q 1509 3213 1509 2338 
Q 1509 1453 1675 1090 
Q 1841 728 2228 728 
Q 2613 728 2778 1090 
Q 2944 1453 2944 2338 
z
M 4147 2328 
Q 4147 1169 3647 539 
Q 3147 -91 2228 -91 
Q 1306 -91 806 539 
Q 306 1169 306 2328 
Q 306 3491 806 4120 
Q 1306 4750 2228 4750 
Q 3147 4750 3647 4120 
Q 4147 3491 4147 2328 
z
" transform="scale(0.015625)"/>
      <path id="DejaVuSans-Bold-b0" d="M 1600 4288 
Q 1375 4288 1219 4131 
Q 1063 3975 1063 3750 
Q 1063 3525 1217 3372 
Q 1372 3219 1600 3219 
Q 1825 3219 1981 3373 
Q 2138 3528 2138 3750 
Q 2138 3975 1980 4131 
Q 1822 4288 1600 4288 
z
M 1600 4794 
Q 1806 4794 1997 4714 
Q 2188 4634 2338 4488 
Q 2484 4338 2561 4150 
Q 2638 3963 2638 3750 
Q 2638 3541 2561 3352 
Q 2484 3163 2344 3022 
Q 2194 2872 2000 2792 
Q 1806 2713 1594 2713 
Q 1153 2713 854 3011 
Q 556 3309 556 3750 
Q 556 4191 857 4492 
Q 1159 4794 1600 4794 
z
" transform="scale(0.015625)"/>
      <path id="DejaVuSans-Bold-29" d="M 513 -844 
Q 913 -100 1113 609 
Q 1313 1319 1313 2009 
Q 1313 2700 1113 3408 
Q 913 4116 513 4856 
L 1441 4856 
Q 1916 4091 2145 3389 
Q 2375 2688 2375 2003 
Q 2375 1319 2147 623 
Q 1919 -72 1441 -844 
L 513 -844 
z
" transform="scale(0.015625)"/>
     </defs>
     <use xlink:href="#DejaVuSans-Bold-41"/>
     <use xlink:href="#DejaVuSans-Bold-2081" transform="translate(77.392578 0)"/>
     <use xlink:href="#DejaVuSans-Bold-20" transform="translate(121.191406 0)"/>
     <use xlink:href="#DejaVuSans-Bold-28" transform="translate(156.005859 0)"/>
     <use xlink:href="#DejaVuSans-Bold-30" transform="translate(201.708984 0)"/>
     <use xlink:href="#DejaVuSans-Bold-b0" transform="translate(271.289062 0)"/>
     <use xlink:href="#DejaVuSans-Bold-29" transform="translate(321.289062 0)"/>
    </g>
   </g>
   <g id="text_2">
    <!-- A₂ (90°) -->
    <g style="fill: #56b4e9" transform="translate(212.497656 70.325987) scale(0.115 -0.115)">
     <defs>
      <path id="DejaVuSans-Bold-2082" d="M 1288 501 
L 2444 501 
L 2444 -24 
L 341 -24 
L 341 454 
L 1319 1285 
Q 1509 1451 1590 1576 
Q 1672 1701 1672 1826 
Q 1672 1982 1558 2079 
Q 1444 2176 1259 2176 
Q 1066 2176 844 2105 
Q 622 2035 359 1888 
L 359 2469 
Q 631 2554 886 2596 
Q 1141 2638 1375 2638 
Q 1869 2638 2150 2436 
Q 2431 2235 2431 1888 
Q 2431 1663 2320 1474 
Q 2209 1285 1894 1016 
L 1288 501 
z
" transform="scale(0.015625)"/>
      <path id="DejaVuSans-Bold-39" d="M 641 103 
L 641 966 
Q 928 831 1190 764 
Q 1453 697 1709 697 
Q 2247 697 2547 995 
Q 2847 1294 2900 1881 
Q 2688 1725 2447 1647 
Q 2206 1569 1925 1569 
Q 1209 1569 770 1986 
Q 331 2403 331 3084 
Q 331 3838 820 4291 
Q 1309 4744 2131 4744 
Q 3044 4744 3544 4128 
Q 4044 3513 4044 2388 
Q 4044 1231 3459 570 
Q 2875 -91 1856 -91 
Q 1528 -91 1228 -42 
Q 928 6 641 103 
z
M 2125 2350 
Q 2441 2350 2600 2554 
Q 2759 2759 2759 3169 
Q 2759 3575 2600 3781 
Q 2441 3988 2125 3988 
Q 1809 3988 1650 3781 
Q 1491 3575 1491 3169 
Q 1491 2759 1650 2554 
Q 1809 2350 2125 2350 
z
" transform="scale(0.015625)"/>
     </defs>
     <use xlink:href="#DejaVuSans-Bold-41"/>
     <use xlink:href="#DejaVuSans-Bold-2082" transform="translate(77.392578 0)"/>
     <use xlink:href="#DejaVuSans-Bold-20" transform="translate(121.191406 0)"/>
     <use xlink:href="#DejaVuSans-Bold-28" transform="translate(156.005859 0)"/>
     <use xlink:href="#DejaVuSans-Bold-39" transform="translate(201.708984 0)"/>
     <use xlink:href="#DejaVuSans-Bold-30" transform="translate(271.289062 0)"/>
     <use xlink:href="#DejaVuSans-Bold-b0" transform="translate(340.869141 0)"/>
     <use xlink:href="#DejaVuSans-Bold-29" transform="translate(390.869141 0)"/>
    </g>
   </g>
   <g id="text_3">
    <!-- B₁ (45°) -->
    <g style="fill: #0072b2" transform="translate(318.909074 114.375129) scale(0.115 -0.115)">
     <defs>
      <path id="DejaVuSans-Bold-42" d="M 2456 2859 
Q 2741 2859 2887 2984 
Q 3034 3109 3034 3353 
Q 3034 3594 2887 3720 
Q 2741 3847 2456 3847 
L 1791 3847 
L 1791 2859 
L 2456 2859 
z
M 2497 819 
Q 2859 819 3042 972 
Q 3225 1125 3225 1434 
Q 3225 1738 3044 1889 
Q 2863 2041 2497 2041 
L 1791 2041 
L 1791 819 
L 2497 819 
z
M 3616 2497 
Q 4003 2384 4215 2081 
Q 4428 1778 4428 1338 
Q 4428 663 3972 331 
Q 3516 0 2584 0 
L 588 0 
L 588 4666 
L 2394 4666 
Q 3366 4666 3802 4372 
Q 4238 4078 4238 3431 
Q 4238 3091 4078 2852 
Q 3919 2613 3616 2497 
z
" transform="scale(0.015625)"/>
      <path id="DejaVuSans-Bold-34" d="M 2356 3675 
L 1038 1722 
L 2356 1722 
L 2356 3675 
z
M 2156 4666 
L 3494 4666 
L 3494 1722 
L 4159 1722 
L 4159 850 
L 3494 850 
L 3494 0 
L 2356 0 
L 2356 850 
L 288 850 
L 288 1881 
L 2156 4666 
z
" transform="scale(0.015625)"/>
      <path id="DejaVuSans-Bold-35" d="M 678 4666 
L 3669 4666 
L 3669 3781 
L 1638 3781 
L 1638 3059 
Q 1775 3097 1914 3117 
Q 2053 3138 2203 3138 
Q 3056 3138 3531 2711 
Q 4006 2284 4006 1522 
Q 4006 766 3489 337 
Q 2972 -91 2053 -91 
Q 1656 -91 1267 -14 
Q 878 63 494 219 
L 494 1166 
Q 875 947 1217 837 
Q 1559 728 1863 728 
Q 2300 728 2551 942 
Q 2803 1156 2803 1522 
Q 2803 1891 2551 2103 
Q 2300 2316 1863 2316 
Q 1603 2316 1309 2248 
Q 1016 2181 678 2041 
L 678 4666 
z
" transform="scale(0.015625)"/>
     </defs>
     <use xlink:href="#DejaVuSans-Bold-42"/>
     <use xlink:href="#DejaVuSans-Bold-2081" transform="translate(76.220703 0)"/>
     <use xlink:href="#DejaVuSans-Bold-20" transform="translate(120.019531 0)"/>
     <use xlink:href="#DejaVuSans-Bold-28" transform="translate(154.833984 0)"/>
     <use xlink:href="#DejaVuSans-Bold-34" transform="translate(200.537109 0)"/>
     <use xlink:href="#DejaVuSans-Bold-35" transform="translate(270.117188 0)"/>
     <use xlink:href="#DejaVuSans-Bold-b0" transform="translate(339.697266 0)"/>
     <use xlink:href="#DejaVuSans-Bold-29" transform="translate(389.697266 0)"/>
    </g>
   </g>
   <g id="text_4">
    <!-- B₂ (135°) -->
    <g style="fill: #0072b2" transform="translate(102.220262 114.375129) scale(0.115 -0.115)">
     <defs>
      <path id="DejaVuSans-Bold-31" d="M 750 831 
L 1813 831 
L 1813 3847 
L 722 3622 
L 722 4441 
L 1806 4666 
L 2950 4666 
L 2950 831 
L 4013 831 
L 4013 0 
L 750 0 
L 750 831 
z
" transform="scale(0.015625)"/>
      <path id="DejaVuSans-Bold-33" d="M 2981 2516 
Q 3453 2394 3698 2092 
Q 3944 1791 3944 1325 
Q 3944 631 3412 270 
Q 2881 -91 1863 -91 
Q 1503 -91 1142 -33 
Q 781 25 428 141 
L 428 1069 
Q 766 900 1098 814 
Q 1431 728 1753 728 
Q 2231 728 2486 893 
Q 2741 1059 2741 1369 
Q 2741 1688 2480 1852 
Q 2219 2016 1709 2016 
L 1228 2016 
L 1228 2791 
L 1734 2791 
Q 2188 2791 2409 2933 
Q 2631 3075 2631 3366 
Q 2631 3634 2415 3781 
Q 2200 3928 1806 3928 
Q 1516 3928 1219 3862 
Q 922 3797 628 3669 
L 628 4550 
Q 984 4650 1334 4700 
Q 1684 4750 2022 4750 
Q 2931 4750 3382 4451 
Q 3834 4153 3834 3553 
Q 3834 3144 3618 2883 
Q 3403 2622 2981 2516 
z
" transform="scale(0.015625)"/>
     </defs>
     <use xlink:href="#DejaVuSans-Bold-42"/>
     <use xlink:href="#DejaVuSans-Bold-2082" transform="translate(76.220703 0)"/>
     <use xlink:href="#DejaVuSans-Bold-20" transform="translate(120.019531 0)"/>
     <use xlink:href="#DejaVuSans-Bold-28" transform="translate(154.833984 0)"/>
     <use xlink:href="#DejaVuSans-Bold-31" transform="translate(200.537109 0)"/>
     <use xlink:href="#DejaVuSans-Bold-33" transform="translate(270.117188 0)"/>
     <use xlink:href="#DejaVuSans-Bold-35" transform="translate(339.697266 0)"/>
     <use xlink:href="#DejaVuSans-Bold-b0" transform="translate(409.277344 0)"/>
     <use xlink:href="#DejaVuSans-Bold-29" transform="translate(459.277344 0)"/>
    </g>
   </g>
   <g id="patch_2">
    <path d="M 289.016471 217.545882 
C 289.016471 210.793933 287.686484 204.107638 285.102625 197.869651 
C 282.518766 191.631663 278.731284 185.963296 273.956935 181.188947 
" clip-path="url(#p6663c68255)" style="fill: none; stroke: #009e73; stroke-width: 2.4; stroke-linejoin: miter"/>
   </g>
   <g id="text_5">
    <!-- E=+0.707 -->
    <g style="fill: #009e73" transform="translate(271.92912 196.171889) scale(0.09 -0.09)">
     <defs>
      <path id="DejaVuSans-45" d="M 628 4666 
L 3578 4666 
L 3578 4134 
L 1259 4134 
L 1259 2753 
L 3481 2753 
L 3481 2222 
L 1259 2222 
L 1259 531 
L 3634 531 
L 3634 0 
L 628 0 
L 628 4666 
z
" transform="scale(0.015625)"/>
      <path id="DejaVuSans-3d" d="M 678 2906 
L 4684 2906 
L 4684 2381 
L 678 2381 
L 678 2906 
z
M 678 1631 
L 4684 1631 
L 4684 1100 
L 678 1100 
L 678 1631 
z
" transform="scale(0.015625)"/>
      <path id="DejaVuSans-2b" d="M 2944 4013 
L 2944 2272 
L 4684 2272 
L 4684 1741 
L 2944 1741 
L 2944 0 
L 2419 0 
L 2419 1741 
L 678 1741 
L 678 2272 
L 2419 2272 
L 2419 4013 
L 2944 4013 
z
" transform="scale(0.015625)"/>
      <path id="DejaVuSans-30" d="M 2034 4250 
Q 1547 4250 1301 3770 
Q 1056 3291 1056 2328 
Q 1056 1369 1301 889 
Q 1547 409 2034 409 
Q 2525 409 2770 889 
Q 3016 1369 3016 2328 
Q 3016 3291 2770 3770 
Q 2525 4250 2034 4250 
z
M 2034 4750 
Q 2819 4750 3233 4129 
Q 3647 3509 3647 2328 
Q 3647 1150 3233 529 
Q 2819 -91 2034 -91 
Q 1250 -91 836 529 
Q 422 1150 422 2328 
Q 422 3509 836 4129 
Q 1250 4750 2034 4750 
z
" transform="scale(0.015625)"/>
      <path id="DejaVuSans-2e" d="M 684 794 
L 1344 794 
L 1344 0 
L 684 0 
L 684 794 
z
" transform="scale(0.015625)"/>
      <path id="DejaVuSans-37" d="M 525 4666 
L 3525 4666 
L 3525 4397 
L 1831 0 
L 1172 0 
L 2766 4134 
L 525 4134 
L 525 4666 
z
" transform="scale(0.015625)"/>
     </defs>
     <use xlink:href="#DejaVuSans-45"/>
     <use xlink:href="#DejaVuSans-3d" transform="translate(63.183594 0)"/>
     <use xlink:href="#DejaVuSans-2b" transform="translate(146.972656 0)"/>
     <use xlink:href="#DejaVuSans-30" transform="translate(230.761719 0)"/>
     <use xlink:href="#DejaVuSans-2e" transform="translate(294.384766 0)"/>
     <use xlink:href="#DejaVuSans-37" transform="translate(326.171875 0)"/>
     <use xlink:href="#DejaVuSans-30" transform="translate(389.794922 0)"/>
     <use xlink:href="#DejaVuSans-37" transform="translate(453.417969 0)"/>
    </g>
   </g>
   <g id="patch_3">
    <path d="M 348.145412 217.545882 
C 348.145412 195.684682 341.660583 174.307066 329.515151 156.130142 
C 317.369719 137.953219 300.101013 123.781158 279.903898 115.415239 
C 259.706782 107.04932 237.474803 104.859661 216.03366 109.12457 
C 194.592517 113.389478 174.890793 123.920269 159.43259 139.378472 
" clip-path="url(#p6663c68255)" style="fill: none; stroke: #e69f00; stroke-width: 2.4; stroke-linejoin: miter"/>
   </g>
   <g id="text_6">
    <!-- E=-0.707 -->
    <g style="fill: #e69f00" transform="translate(262.964628 107.804369) scale(0.09 -0.09)">
     <defs>
      <path id="DejaVuSans-2d" d="M 313 2009 
L 1997 2009 
L 1997 1497 
L 313 1497 
L 313 2009 
z
" transform="scale(0.015625)"/>
     </defs>
     <use xlink:href="#DejaVuSans-45"/>
     <use xlink:href="#DejaVuSans-3d" transform="translate(63.183594 0)"/>
     <use xlink:href="#DejaVuSans-2d" transform="translate(146.972656 0)"/>
     <use xlink:href="#DejaVuSans-30" transform="translate(183.056641 0)"/>
     <use xlink:href="#DejaVuSans-2e" transform="translate(246.679688 0)"/>
     <use xlink:href="#DejaVuSans-37" transform="translate(278.466797 0)"/>
     <use xlink:href="#DejaVuSans-30" transform="translate(342.089844 0)"/>
     <use xlink:href="#DejaVuSans-37" transform="translate(405.712891 0)"/>
    </g>
   </g>
   <g id="patch_4">
    <path d="M 290.317556 164.828327 
C 283.39475 157.905521 275.175618 152.413672 266.130536 148.667076 
C 257.085454 144.920481 247.390326 142.992 237.6 142.992 
" clip-path="url(#p6663c68255)" style="fill: none; stroke: #009e73; stroke-width: 2.4; stroke-linejoin: miter"/>
   </g>
   <g id="text_7">
    <!-- E=+0.707 -->
    <g style="fill: #009e73" transform="translate(247.043922 141.056206) scale(0.09 -0.09)">
     <use xlink:href="#DejaVuSans-45"/>
     <use xlink:href="#DejaVuSans-3d" transform="translate(63.183594 0)"/>
     <use xlink:href="#DejaVuSans-2b" transform="translate(146.972656 0)"/>
     <use xlink:href="#DejaVuSans-30" transform="translate(230.761719 0)"/>
     <use xlink:href="#DejaVuSans-2e" transform="translate(294.384766 0)"/>
     <use xlink:href="#DejaVuSans-37" transform="translate(326.171875 0)"/>
     <use xlink:href="#DejaVuSans-30" transform="translate(389.794922 0)"/>
     <use xlink:href="#DejaVuSans-37" transform="translate(453.417969 0)"/>
    </g>
   </g>
   <g id="patch_5">
    <path d="M 237.6 124.996235 
C 225.446492 124.996235 213.411161 127.390211 202.182783 132.041158 
C 190.954406 136.692104 180.751345 143.509571 172.157517 152.103399 
" clip-path="url(#p6663c68255)" style="fill: none; stroke: #009e73; stroke-width: 2.4; stroke-linejoin: miter"/>
   </g>
   <g id="text_8">
    <!-- E=+0.707 -->
    <g style="fill: #009e73" transform="translate(174.733772 124.430287) scale(0.09 -0.09)">
     <use xlink:href="#DejaVuSans-45"/>
     <use xlink:href="#DejaVuSans-3d" transform="translate(63.183594 0)"/>
     <use xlink:href="#DejaVuSans-2b" transform="translate(146.972656 0)"/>
     <use xlink:href="#DejaVuSans-30" transform="translate(230.761719 0)"/>
     <use xlink:href="#DejaVuSans-2e" transform="translate(294.384766 0)"/>
     <use xlink:href="#DejaVuSans-37" transform="translate(326.171875 0)"/>
     <use xlink:href="#DejaVuSans-30" transform="translate(389.794922 0)"/>
     <use xlink:href="#DejaVuSans-37" transform="translate(453.417969 0)"/>
    </g>
   </g>
   <g id="text_9">
    <!-- unit circle (|E|=1);  green arc: positive correlation,  orange arc: negative -->
    <g style="fill: #999999" transform="translate(83.951211 37.263271) scale(0.085 -0.085)">
     <defs>
      <path id="DejaVuSans-75" d="M 544 1381 
L 544 3500 
L 1119 3500 
L 1119 1403 
Q 1119 906 1312 657 
Q 1506 409 1894 409 
Q 2359 409 2629 706 
Q 2900 1003 2900 1516 
L 2900 3500 
L 3475 3500 
L 3475 0 
L 2900 0 
L 2900 538 
Q 2691 219 2414 64 
Q 2138 -91 1772 -91 
Q 1169 -91 856 284 
Q 544 659 544 1381 
z
M 1991 3584 
L 1991 3584 
z
" transform="scale(0.015625)"/>
      <path id="DejaVuSans-6e" d="M 3513 2113 
L 3513 0 
L 2938 0 
L 2938 2094 
Q 2938 2591 2744 2837 
Q 2550 3084 2163 3084 
Q 1697 3084 1428 2787 
Q 1159 2491 1159 1978 
L 1159 0 
L 581 0 
L 581 3500 
L 1159 3500 
L 1159 2956 
Q 1366 3272 1645 3428 
Q 1925 3584 2291 3584 
Q 2894 3584 3203 3211 
Q 3513 2838 3513 2113 
z
" transform="scale(0.015625)"/>
      <path id="DejaVuSans-69" d="M 603 3500 
L 1178 3500 
L 1178 0 
L 603 0 
L 603 3500 
z
M 603 4863 
L 1178 4863 
L 1178 4134 
L 603 4134 
L 603 4863 
z
" transform="scale(0.015625)"/>
      <path id="DejaVuSans-74" d="M 1172 4494 
L 1172 3500 
L 2356 3500 
L 2356 3053 
L 1172 3053 
L 1172 1153 
Q 1172 725 1289 603 
Q 1406 481 1766 481 
L 2356 481 
L 2356 0 
L 1766 0 
Q 1100 0 847 248 
Q 594 497 594 1153 
L 594 3053 
L 172 3053 
L 172 3500 
L 594 3500 
L 594 4494 
L 1172 4494 
z
" transform="scale(0.015625)"/>
      <path id="DejaVuSans-20" transform="scale(0.015625)"/>
      <path id="DejaVuSans-63" d="M 3122 3366 
L 3122 2828 
Q 2878 2963 2633 3030 
Q 2388 3097 2138 3097 
Q 1578 3097 1268 2742 
Q 959 2388 959 1747 
Q 959 1106 1268 751 
Q 1578 397 2138 397 
Q 2388 397 2633 464 
Q 2878 531 3122 666 
L 3122 134 
Q 2881 22 2623 -34 
Q 2366 -91 2075 -91 
Q 1284 -91 818 406 
Q 353 903 353 1747 
Q 353 2603 823 3093 
Q 1294 3584 2113 3584 
Q 2378 3584 2631 3529 
Q 2884 3475 3122 3366 
z
" transform="scale(0.015625)"/>
      <path id="DejaVuSans-72" d="M 2631 2963 
Q 2534 3019 2420 3045 
Q 2306 3072 2169 3072 
Q 1681 3072 1420 2755 
Q 1159 2438 1159 1844 
L 1159 0 
L 581 0 
L 581 3500 
L 1159 3500 
L 1159 2956 
Q 1341 3275 1631 3429 
Q 1922 3584 2338 3584 
Q 2397 3584 2469 3576 
Q 2541 3569 2628 3553 
L 2631 2963 
z
" transform="scale(0.015625)"/>
      <path id="DejaVuSans-6c" d="M 603 4863 
L 1178 4863 
L 1178 0 
L 603 0 
L 603 4863 
z
" transform="scale(0.015625)"/>
      <path id="DejaVuSans-65" d="M 3597 1894 
L 3597 1613 
L 953 1613 
Q 991 1019 1311 708 
Q 1631 397 2203 397 
Q 2534 397 2845 478 
Q 3156 559 3463 722 
L 3463 178 
Q 3153 47 2828 -22 
Q 2503 -91 2169 -91 
Q 1331 -91 842 396 
Q 353 884 353 1716 
Q 353 2575 817 3079 
Q 1281 3584 2069 3584 
Q 2775 3584 3186 3129 
Q 3597 2675 3597 1894 
z
M 3022 2063 
Q 3016 2534 2758 2815 
Q 2500 3097 2075 3097 
Q 1594 3097 1305 2825 
Q 1016 2553 972 2059 
L 3022 2063 
z
" transform="scale(0.015625)"/>
      <path id="DejaVuSans-28" d="M 1984 4856 
Q 1566 4138 1362 3434 
Q 1159 2731 1159 2009 
Q 1159 1288 1364 580 
Q 1569 -128 1984 -844 
L 1484 -844 
Q 1016 -109 783 600 
Q 550 1309 550 2009 
Q 550 2706 781 3412 
Q 1013 4119 1484 4856 
L 1984 4856 
z
" transform="scale(0.015625)"/>
      <path id="DejaVuSans-7c" d="M 1344 4891 
L 1344 -1509 
L 813 -1509 
L 813 4891 
L 1344 4891 
z
" transform="scale(0.015625)"/>
      <path id="DejaVuSans-31" d="M 794 531 
L 1825 531 
L 1825 4091 
L 703 3866 
L 703 4441 
L 1819 4666 
L 2450 4666 
L 2450 531 
L 3481 531 
L 3481 0 
L 794 0 
L 794 531 
z
" transform="scale(0.015625)"/>
      <path id="DejaVuSans-29" d="M 513 4856 
L 1013 4856 
Q 1481 4119 1714 3412 
Q 1947 2706 1947 2009 
Q 1947 1309 1714 600 
Q 1481 -109 1013 -844 
L 513 -844 
Q 928 -128 1133 580 
Q 1338 1288 1338 2009 
Q 1338 2731 1133 3434 
Q 928 4138 513 4856 
z
" transform="scale(0.015625)"/>
      <path id="DejaVuSans-3b" d="M 750 3309 
L 1409 3309 
L 1409 2516 
L 750 2516 
L 750 3309 
z
M 750 794 
L 1409 794 
L 1409 256 
L 897 -744 
L 494 -744 
L 750 256 
L 750 794 
z
" transform="scale(0.015625)"/>
      <path id="DejaVuSans-67" d="M 2906 1791 
Q 2906 2416 2648 2759 
Q 2391 3103 1925 3103 
Q 1463 3103 1205 2759 
Q 947 2416 947 1791 
Q 947 1169 1205 825 
Q 1463 481 1925 481 
Q 2391 481 2648 825 
Q 2906 1169 2906 1791 
z
M 3481 434 
Q 3481 -459 3084 -895 
Q 2688 -1331 1869 -1331 
Q 1566 -1331 1297 -1286 
Q 1028 -1241 775 -1147 
L 775 -588 
Q 1028 -725 1275 -790 
Q 1522 -856 1778 -856 
Q 2344 -856 2625 -561 
Q 2906 -266 2906 331 
L 2906 616 
Q 2728 306 2450 153 
Q 2172 0 1784 0 
Q 1141 0 747 490 
Q 353 981 353 1791 
Q 353 2603 747 3093 
Q 1141 3584 1784 3584 
Q 2172 3584 2450 3431 
Q 2728 3278 2906 2969 
L 2906 3500 
L 3481 3500 
L 3481 434 
z
" transform="scale(0.015625)"/>
      <path id="DejaVuSans-61" d="M 2194 1759 
Q 1497 1759 1228 1600 
Q 959 1441 959 1056 
Q 959 750 1161 570 
Q 1363 391 1709 391 
Q 2188 391 2477 730 
Q 2766 1069 2766 1631 
L 2766 1759 
L 2194 1759 
z
M 3341 1997 
L 3341 0 
L 2766 0 
L 2766 531 
Q 2569 213 2275 61 
Q 1981 -91 1556 -91 
Q 1019 -91 701 211 
Q 384 513 384 1019 
Q 384 1609 779 1909 
Q 1175 2209 1959 2209 
L 2766 2209 
L 2766 2266 
Q 2766 2663 2505 2880 
Q 2244 3097 1772 3097 
Q 1472 3097 1187 3025 
Q 903 2953 641 2809 
L 641 3341 
Q 956 3463 1253 3523 
Q 1550 3584 1831 3584 
Q 2591 3584 2966 3190 
Q 3341 2797 3341 1997 
z
" transform="scale(0.015625)"/>
      <path id="DejaVuSans-3a" d="M 750 794 
L 1409 794 
L 1409 0 
L 750 0 
L 750 794 
z
M 750 3309 
L 1409 3309 
L 1409 2516 
L 750 2516 
L 750 3309 
z
" transform="scale(0.015625)"/>
      <path id="DejaVuSans-70" d="M 1159 525 
L 1159 -1331 
L 581 -1331 
L 581 3500 
L 1159 3500 
L 1159 2969 
Q 1341 3281 1617 3432 
Q 1894 3584 2278 3584 
Q 2916 3584 3314 3078 
Q 3713 2572 3713 1747 
Q 3713 922 3314 415 
Q 2916 -91 2278 -91 
Q 1894 -91 1617 61 
Q 1341 213 1159 525 
z
M 3116 1747 
Q 3116 2381 2855 2742 
Q 2594 3103 2138 3103 
Q 1681 3103 1420 2742 
Q 1159 2381 1159 1747 
Q 1159 1113 1420 752 
Q 1681 391 2138 391 
Q 2594 391 2855 752 
Q 3116 1113 3116 1747 
z
" transform="scale(0.015625)"/>
      <path id="DejaVuSans-6f" d="M 1959 3097 
Q 1497 3097 1228 2736 
Q 959 2375 959 1747 
Q 959 1119 1226 758 
Q 1494 397 1959 397 
Q 2419 397 2687 759 
Q 2956 1122 2956 1747 
Q 2956 2369 2687 2733 
Q 2419 3097 1959 3097 
z
M 1959 3584 
Q 2709 3584 3137 3096 
Q 3566 2609 3566 1747 
Q 3566 888 3137 398 
Q 2709 -91 1959 -91 
Q 1206 -91 779 398 
Q 353 888 353 1747 
Q 353 2609 779 3096 
Q 1206 3584 1959 3584 
z
" transform="scale(0.015625)"/>
      <path id="DejaVuSans-73" d="M 2834 3397 
L 2834 2853 
Q 2591 2978 2328 3040 
Q 2066 3103 1784 3103 
Q 1356 3103 1142 2972 
Q 928 2841 928 2578 
Q 928 2378 1081 2264 
Q 1234 2150 1697 2047 
L 1894 2003 
Q 2506 1872 2764 1633 
Q 3022 1394 3022 966 
Q 3022 478 2636 193 
Q 2250 -91 1575 -91 
Q 1294 -91 989 -36 
Q 684 19 347 128 
L 347 722 
Q 666 556 975 473 
Q 1284 391 1588 391 
Q 1994 391 2212 530 
Q 2431 669 2431 922 
Q 2431 1156 2273 1281 
Q 2116 1406 1581 1522 
L 1381 1569 
Q 847 1681 609 1914 
Q 372 2147 372 2553 
Q 372 3047 722 3315 
Q 1072 3584 1716 3584 
Q 2034 3584 2315 3537 
Q 2597 3491 2834 3397 
z
" transform="scale(0.015625)"/>
      <path id="DejaVuSans-76" d="M 191 3500 
L 800 3500 
L 1894 563 
L 2988 3500 
L 3597 3500 
L 2284 0 
L 1503 0 
L 191 3500 
z
" transform="scale(0.015625)"/>
      <path id="DejaVuSans-2c" d="M 750 794 
L 1409 794 
L 1409 256 
L 897 -744 
L 494 -744 
L 750 256 
L 750 794 
z
" transform="scale(0.015625)"/>
     </defs>
     <use xlink:href="#DejaVuSans-75"/>
     <use xlink:href="#DejaVuSans-6e" transform="translate(63.378906 0)"/>
     <use xlink:href="#DejaVuSans-69" transform="translate(126.757812 0)"/>
     <use xlink:href="#DejaVuSans-74" transform="translate(154.541016 0)"/>
     <use xlink:href="#DejaVuSans-20" transform="translate(193.75 0)"/>
     <use xlink:href="#DejaVuSans-63" transform="translate(225.537109 0)"/>
     <use xlink:href="#DejaVuSans-69" transform="translate(280.517578 0)"/>
     <use xlink:href="#DejaVuSans-72" transform="translate(308.300781 0)"/>
     <use xlink:href="#DejaVuSans-63" transform="translate(347.164062 0)"/>
     <use xlink:href="#DejaVuSans-6c" transform="translate(402.144531 0)"/>
     <use xlink:href="#DejaVuSans-65" transform="translate(429.927734 0)"/>
     <use xlink:href="#DejaVuSans-20" transform="translate(491.451172 0)"/>
     <use xlink:href="#DejaVuSans-28" transform="translate(523.238281 0)"/>
     <use xlink:href="#DejaVuSans-7c" transform="translate(562.251953 0)"/>
     <use xlink:href="#DejaVuSans-45" transform="translate(595.943359 0)"/>
     <use xlink:href="#DejaVuSans-7c" transform="translate(659.126953 0)"/>
     <use xlink:href="#DejaVuSans-3d" transform="translate(692.818359 0)"/>
     <use xlink:href="#DejaVuSans-31" transform="translate(776.607422 0)"/>
     <use xlink:href="#DejaVuSans-29" transform="translate(840.230469 0)"/>
     <use xlink:href="#DejaVuSans-3b" transform="translate(879.244141 0)"/>
     <use xlink:href="#DejaVuSans-20" transform="translate(912.935547 0)"/>
     <use xlink:href="#DejaVuSans-20" transform="translate(944.722656 0)"/>
     <use xlink:href="#DejaVuSans-67" transform="translate(976.509766 0)"/>
     <use xlink:href="#DejaVuSans-72" transform="translate(1039.986328 0)"/>
     <use xlink:href="#DejaVuSans-65" transform="translate(1078.849609 0)"/>
     <use xlink:href="#DejaVuSans-65" transform="translate(1140.373047 0)"/>
     <use xlink:href="#DejaVuSans-6e" transform="translate(1201.896484 0)"/>
     <use xlink:href="#DejaVuSans-20" transform="translate(1265.275391 0)"/>
     <use xlink:href="#DejaVuSans-61" transform="translate(1297.0625 0)"/>
     <use xlink:href="#DejaVuSans-72" transform="translate(1358.341797 0)"/>
     <use xlink:href="#DejaVuSans-63" transform="translate(1397.205078 0)"/>
     <use xlink:href="#DejaVuSans-3a" transform="translate(1452.185547 0)"/>
     <use xlink:href="#DejaVuSans-20" transform="translate(1485.876953 0)"/>
     <use xlink:href="#DejaVuSans-70" transform="translate(1517.664062 0)"/>
     <use xlink:href="#DejaVuSans-6f" transform="translate(1581.140625 0)"/>
     <use xlink:href="#DejaVuSans-73" transform="translate(1642.322266 0)"/>
     <use xlink:href="#DejaVuSans-69" transform="translate(1694.421875 0)"/>
     <use xlink:href="#DejaVuSans-74" transform="translate(1722.205078 0)"/>
     <use xlink:href="#DejaVuSans-69" transform="translate(1761.414062 0)"/>
     <use xlink:href="#DejaVuSans-76" transform="translate(1789.197266 0)"/>
     <use xlink:href="#DejaVuSans-65" transform="translate(1848.376953 0)"/>
     <use xlink:href="#DejaVuSans-20" transform="translate(1909.900391 0)"/>
     <use xlink:href="#DejaVuSans-63" transform="translate(1941.6875 0)"/>
     <use xlink:href="#DejaVuSans-6f" transform="translate(1996.667969 0)"/>
     <use xlink:href="#DejaVuSans-72" transform="translate(2057.849609 0)"/>
     <use xlink:href="#DejaVuSans-72" transform="translate(2097.212891 0)"/>
     <use xlink:href="#DejaVuSans-65" transform="translate(2136.076172 0)"/>
     <use xlink:href="#DejaVuSans-6c" transform="translate(2197.599609 0)"/>
     <use xlink:href="#DejaVuSans-61" transform="translate(2225.382812 0)"/>
     <use xlink:href="#DejaVuSans-74" transform="translate(2286.662109 0)"/>
     <use xlink:href="#DejaVuSans-69" transform="translate(2325.871094 0)"/>
     <use xlink:href="#DejaVuSans-6f" transform="translate(2353.654297 0)"/>
     <use xlink:href="#DejaVuSans-6e" transform="translate(2414.835938 0)"/>
     <use xlink:href="#DejaVuSans-2c" transform="translate(2478.214844 0)"/>
     <use xlink:href="#DejaVuSans-20" transform="translate(2510.001953 0)"/>
     <use xlink:href="#DejaVuSans-20" transform="translate(2541.789062 0)"/>
     <use xlink:href="#DejaVuSans-6f" transform="translate(2573.576172 0)"/>
     <use xlink:href="#DejaVuSans-72" transform="translate(2634.757812 0)"/>
     <use xlink:href="#DejaVuSans-61" transform="translate(2675.871094 0)"/>
     <use xlink:href="#DejaVuSans-6e" transform="translate(2737.150391 0)"/>
     <use xlink:href="#DejaVuSans-67" transform="translate(2800.529297 0)"/>
     <use xlink:href="#DejaVuSans-65" transform="translate(2864.005859 0)"/>
     <use xlink:href="#DejaVuSans-20" transform="translate(2925.529297 0)"/>
     <use xlink:href="#DejaVuSans-61" transform="translate(2957.316406 0)"/>
     <use xlink:href="#DejaVuSans-72" transform="translate(3018.595703 0)"/>
     <use xlink:href="#DejaVuSans-63" transform="translate(3057.458984 0)"/>
     <use xlink:href="#DejaVuSans-3a" transform="translate(3112.439453 0)"/>
     <use xlink:href="#DejaVuSans-20" transform="translate(3146.130859 0)"/>
     <use xlink:href="#DejaVuSans-6e" transform="translate(3177.917969 0)"/>
     <use xlink:href="#DejaVuSans-65" transform="translate(3241.296875 0)"/>
     <use xlink:href="#DejaVuSans-67" transform="translate(3302.820312 0)"/>
     <use xlink:href="#DejaVuSans-61" transform="translate(3366.296875 0)"/>
     <use xlink:href="#DejaVuSans-74" transform="translate(3427.576172 0)"/>
     <use xlink:href="#DejaVuSans-69" transform="translate(3466.785156 0)"/>
     <use xlink:href="#DejaVuSans-76" transform="translate(3494.568359 0)"/>
     <use xlink:href="#DejaVuSans-65" transform="translate(3553.748047 0)"/>
    </g>
   </g>
   <g id="text_10">
    <!-- S = E(A₁,B₁) − E(A₁,B₂) + E(A₂,B₁) + E(A₂,B₂) -->
    <g transform="translate(121.378945 406.827932) scale(0.105 -0.105)">
     <defs>
      <path id="DejaVuSans-53" d="M 3425 4513 
L 3425 3897 
Q 3066 4069 2747 4153 
Q 2428 4238 2131 4238 
Q 1616 4238 1336 4038 
Q 1056 3838 1056 3469 
Q 1056 3159 1242 3001 
Q 1428 2844 1947 2747 
L 2328 2669 
Q 3034 2534 3370 2195 
Q 3706 1856 3706 1288 
Q 3706 609 3251 259 
Q 2797 -91 1919 -91 
Q 1588 -91 1214 -16 
Q 841 59 441 206 
L 441 856 
Q 825 641 1194 531 
Q 1563 422 1919 422 
Q 2459 422 2753 634 
Q 3047 847 3047 1241 
Q 3047 1584 2836 1778 
Q 2625 1972 2144 2069 
L 1759 2144 
Q 1053 2284 737 2584 
Q 422 2884 422 3419 
Q 422 4038 858 4394 
Q 1294 4750 2059 4750 
Q 2388 4750 2728 4690 
Q 3069 4631 3425 4513 
z
" transform="scale(0.015625)"/>
      <path id="DejaVuSans-41" d="M 2188 4044 
L 1331 1722 
L 3047 1722 
L 2188 4044 
z
M 1831 4666 
L 2547 4666 
L 4325 0 
L 3669 0 
L 3244 1197 
L 1141 1197 
L 716 0 
L 50 0 
L 1831 4666 
z
" transform="scale(0.015625)"/>
      <path id="DejaVuSans-2081" d="M 488 319 
L 1125 319 
L 1125 2229 
L 428 2101 
L 428 2463 
L 1147 2585 
L 1575 2585 
L 1575 319 
L 2216 319 
L 2216 -24 
L 488 -24 
L 488 319 
z
" transform="scale(0.015625)"/>
      <path id="DejaVuSans-42" d="M 1259 2228 
L 1259 519 
L 2272 519 
Q 2781 519 3026 730 
Q 3272 941 3272 1375 
Q 3272 1813 3026 2020 
Q 2781 2228 2272 2228 
L 1259 2228 
z
M 1259 4147 
L 1259 2741 
L 2194 2741 
Q 2656 2741 2882 2914 
Q 3109 3088 3109 3444 
Q 3109 3797 2882 3972 
Q 2656 4147 2194 4147 
L 1259 4147 
z
M 628 4666 
L 2241 4666 
Q 2963 4666 3353 4366 
Q 3744 4066 3744 3513 
Q 3744 3084 3544 2831 
Q 3344 2578 2956 2516 
Q 3422 2416 3680 2098 
Q 3938 1781 3938 1306 
Q 3938 681 3513 340 
Q 3088 0 2303 0 
L 628 0 
L 628 4666 
z
" transform="scale(0.015625)"/>
      <path id="DejaVuSans-2212" d="M 678 2272 
L 4684 2272 
L 4684 1741 
L 678 1741 
L 678 2272 
z
" transform="scale(0.015625)"/>
      <path id="DejaVuSans-2082" d="M 838 332 
L 2163 332 
L 2163 -24 
L 294 -24 
L 294 319 
Q 400 416 597 591 
Q 1672 1544 1672 1838 
Q 1672 2044 1509 2170 
Q 1347 2297 1081 2297 
Q 919 2297 728 2242 
Q 538 2188 313 2079 
L 313 2463 
Q 553 2551 761 2594 
Q 969 2638 1147 2638 
Q 1600 2638 1872 2432 
Q 2144 2226 2144 1888 
Q 2144 1454 1109 566 
Q 934 416 838 332 
z
" transform="scale(0.015625)"/>
     </defs>
     <use xlink:href="#DejaVuSans-53"/>
     <use xlink:href="#DejaVuSans-20" transform="translate(63.476562 0)"/>
     <use xlink:href="#DejaVuSans-3d" transform="translate(95.263672 0)"/>
     <use xlink:href="#DejaVuSans-20" transform="translate(179.052734 0)"/>
     <use xlink:href="#DejaVuSans-45" transform="translate(210.839844 0)"/>
     <use xlink:href="#DejaVuSans-28" transform="translate(274.023438 0)"/>
     <use xlink:href="#DejaVuSans-41" transform="translate(313.037109 0)"/>
     <use xlink:href="#DejaVuSans-2081" transform="translate(381.445312 0)"/>
     <use xlink:href="#DejaVuSans-2c" transform="translate(421.533203 0)"/>
     <use xlink:href="#DejaVuSans-42" transform="translate(453.320312 0)"/>
     <use xlink:href="#DejaVuSans-2081" transform="translate(521.923828 0)"/>
     <use xlink:href="#DejaVuSans-29" transform="translate(562.011719 0)"/>
     <use xlink:href="#DejaVuSans-20" transform="translate(601.025391 0)"/>
     <use xlink:href="#DejaVuSans-2212" transform="translate(632.8125 0)"/>
     <use xlink:href="#DejaVuSans-20" transform="translate(716.601562 0)"/>
     <use xlink:href="#DejaVuSans-45" transform="translate(748.388672 0)"/>
     <use xlink:href="#DejaVuSans-28" transform="translate(811.572266 0)"/>
     <use xlink:href="#DejaVuSans-41" transform="translate(850.585938 0)"/>
     <use xlink:href="#DejaVuSans-2081" transform="translate(918.994141 0)"/>
     <use xlink:href="#DejaVuSans-2c" transform="translate(959.082031 0)"/>
     <use xlink:href="#DejaVuSans-42" transform="translate(990.869141 0)"/>
     <use xlink:href="#DejaVuSans-2082" transform="translate(1059.472656 0)"/>
     <use xlink:href="#DejaVuSans-29" transform="translate(1099.560547 0)"/>
     <use xlink:href="#DejaVuSans-20" transform="translate(1138.574219 0)"/>
     <use xlink:href="#DejaVuSans-2b" transform="translate(1170.361328 0)"/>
     <use xlink:href="#DejaVuSans-20" transform="translate(1254.150391 0)"/>
     <use xlink:href="#DejaVuSans-45" transform="translate(1285.9375 0)"/>
     <use xlink:href="#DejaVuSans-28" transform="translate(1349.121094 0)"/>
     <use xlink:href="#DejaVuSans-41" transform="translate(1388.134766 0)"/>
     <use xlink:href="#DejaVuSans-2082" transform="translate(1456.542969 0)"/>
     <use xlink:href="#DejaVuSans-2c" transform="translate(1496.630859 0)"/>
     <use xlink:href="#DejaVuSans-42" transform="translate(1528.417969 0)"/>
     <use xlink:href="#DejaVuSans-2081" transform="translate(1597.021484 0)"/>
     <use xlink:href="#DejaVuSans-29" transform="translate(1637.109375 0)"/>
     <use xlink:href="#DejaVuSans-20" transform="translate(1676.123047 0)"/>
     <use xlink:href="#DejaVuSans-2b" transform="translate(1707.910156 0)"/>
     <use xlink:href="#DejaVuSans-20" transform="translate(1791.699219 0)"/>
     <use xlink:href="#DejaVuSans-45" transform="translate(1823.486328 0)"/>
     <use xlink:href="#DejaVuSans-28" transform="translate(1886.669922 0)"/>
     <use xlink:href="#DejaVuSans-41" transform="translate(1925.683594 0)"/>
     <use xlink:href="#DejaVuSans-2082" transform="translate(1994.091797 0)"/>
     <use xlink:href="#DejaVuSans-2c" transform="translate(2034.179688 0)"/>
     <use xlink:href="#DejaVuSans-42" transform="translate(2065.966797 0)"/>
     <use xlink:href="#DejaVuSans-2082" transform="translate(2134.570312 0)"/>
     <use xlink:href="#DejaVuSans-29" transform="translate(2174.658203 0)"/>
    </g>
   </g>
   <g id="text_11">
    <!-- = 2.828 = 2√2   (classical bound |S| ≤ 2, Tsirelson bound 2√2 ≈ 2.828) -->
    <g style="fill: #d55e00" transform="translate(51.232383 428.802979) scale(0.105 -0.105)">
     <defs>
      <path id="DejaVuSans-32" d="M 1228 531 
L 3431 531 
L 3431 0 
L 469 0 
L 469 531 
Q 828 903 1448 1529 
Q 2069 2156 2228 2338 
Q 2531 2678 2651 2914 
Q 2772 3150 2772 3378 
Q 2772 3750 2511 3984 
Q 2250 4219 1831 4219 
Q 1534 4219 1204 4116 
Q 875 4013 500 3803 
L 500 4441 
Q 881 4594 1212 4672 
Q 1544 4750 1819 4750 
Q 2544 4750 2975 4387 
Q 3406 4025 3406 3419 
Q 3406 3131 3298 2873 
Q 3191 2616 2906 2266 
Q 2828 2175 2409 1742 
Q 1991 1309 1228 531 
z
" transform="scale(0.015625)"/>
      <path id="DejaVuSans-38" d="M 2034 2216 
Q 1584 2216 1326 1975 
Q 1069 1734 1069 1313 
Q 1069 891 1326 650 
Q 1584 409 2034 409 
Q 2484 409 2743 651 
Q 3003 894 3003 1313 
Q 3003 1734 2745 1975 
Q 2488 2216 2034 2216 
z
M 1403 2484 
Q 997 2584 770 2862 
Q 544 3141 544 3541 
Q 544 4100 942 4425 
Q 1341 4750 2034 4750 
Q 2731 4750 3128 4425 
Q 3525 4100 3525 3541 
Q 3525 3141 3298 2862 
Q 3072 2584 2669 2484 
Q 3125 2378 3379 2068 
Q 3634 1759 3634 1313 
Q 3634 634 3220 271 
Q 2806 -91 2034 -91 
Q 1263 -91 848 271 
Q 434 634 434 1313 
Q 434 1759 690 2068 
Q 947 2378 1403 2484 
z
M 1172 3481 
Q 1172 3119 1398 2916 
Q 1625 2713 2034 2713 
Q 2441 2713 2670 2916 
Q 2900 3119 2900 3481 
Q 2900 3844 2670 4047 
Q 2441 4250 2034 4250 
Q 1625 4250 1398 4047 
Q 1172 3844 1172 3481 
z
" transform="scale(0.015625)"/>
      <path id="DejaVuSans-221a" d="M 3488 5191 
L 4078 5191 
L 4078 4891 
L 3719 4891 
L 1863 -128 
L 1656 -128 
L 659 2631 
L 269 2491 
L 191 2741 
L 1075 3047 
L 1875 831 
L 3488 5191 
z
" transform="scale(0.015625)"/>
      <path id="DejaVuSans-62" d="M 3116 1747 
Q 3116 2381 2855 2742 
Q 2594 3103 2138 3103 
Q 1681 3103 1420 2742 
Q 1159 2381 1159 1747 
Q 1159 1113 1420 752 
Q 1681 391 2138 391 
Q 2594 391 2855 752 
Q 3116 1113 3116 1747 
z
M 1159 2969 
Q 1341 3281 1617 3432 
Q 1894 3584 2278 3584 
Q 2916 3584 3314 3078 
Q 3713 2572 3713 1747 
Q 3713 922 3314 415 
Q 2916 -91 2278 -91 
Q 1894 -91 1617 61 
Q 1341 213 1159 525 
L 1159 0 
L 581 0 
L 581 4863 
L 1159 4863 
L 1159 2969 
z
" transform="scale(0.015625)"/>
      <path id="DejaVuSans-64" d="M 2906 2969 
L 2906 4863 
L 3481 4863 
L 3481 0 
L 2906 0 
L 2906 525 
Q 2725 213 2448 61 
Q 2172 -91 1784 -91 
Q 1150 -91 751 415 
Q 353 922 353 1747 
Q 353 2572 751 3078 
Q 1150 3584 1784 3584 
Q 2172 3584 2448 3432 
Q 2725 3281 2906 2969 
z
M 947 1747 
Q 947 1113 1208 752 
Q 1469 391 1925 391 
Q 2381 391 2643 752 
Q 2906 1113 2906 1747 
Q 2906 2381 2643 2742 
Q 2381 3103 1925 3103 
Q 1469 3103 1208 2742 
Q 947 2381 947 1747 
z
" transform="scale(0.015625)"/>
      <path id="DejaVuSans-2264" d="M 4684 3175 
L 1684 2309 
L 4684 1453 
L 4684 897 
L 678 2047 
L 678 2578 
L 4684 3725 
L 4684 3175 
z
M 678 531 
L 4684 531 
L 4684 0 
L 678 0 
L 678 531 
z
" transform="scale(0.015625)"/>
      <path id="DejaVuSans-54" d="M -19 4666 
L 3928 4666 
L 3928 4134 
L 2272 4134 
L 2272 0 
L 1638 0 
L 1638 4134 
L -19 4134 
L -19 4666 
z
" transform="scale(0.015625)"/>
      <path id="DejaVuSans-2248" d="M 4684 1947 
L 4684 1388 
Q 4356 1144 4076 1036 
Q 3797 928 3494 928 
Q 3150 928 2694 1113 
Q 2663 1125 2641 1134 
Q 2622 1141 2575 1159 
Q 2091 1350 1797 1350 
Q 1522 1350 1253 1231 
Q 984 1113 678 850 
L 678 1409 
Q 1006 1653 1286 1761 
Q 1566 1869 1869 1869 
Q 2213 1869 2672 1684 
Q 2706 1669 2722 1663 
Q 2741 1656 2788 1638 
Q 3272 1447 3566 1447 
Q 3834 1447 4098 1564 
Q 4363 1681 4684 1947 
z
M 4684 3163 
L 4684 2606 
Q 4356 2359 4076 2251 
Q 3797 2144 3494 2144 
Q 3150 2144 2694 2328 
Q 2663 2341 2641 2350 
Q 2622 2356 2575 2375 
Q 2091 2566 1797 2566 
Q 1522 2566 1253 2447 
Q 984 2328 678 2069 
L 678 2625 
Q 1006 2869 1286 2976 
Q 1566 3084 1869 3084 
Q 2213 3084 2672 2900 
Q 2703 2888 2719 2881 
Q 2741 2872 2788 2853 
Q 3272 2663 3566 2663 
Q 3834 2663 4098 2780 
Q 4363 2897 4684 3163 
z
" transform="scale(0.015625)"/>
     </defs>
     <use xlink:href="#DejaVuSans-3d"/>
     <use xlink:href="#DejaVuSans-20" transform="translate(83.789062 0)"/>
     <use xlink:href="#DejaVuSans-32" transform="translate(115.576172 0)"/>
     <use xlink:href="#DejaVuSans-2e" transform="translate(179.199219 0)"/>
     <use xlink:href="#DejaVuSans-38" transform="translate(210.986328 0)"/>
     <use xlink:href="#DejaVuSans-32" transform="translate(274.609375 0)"/>
     <use xlink:href="#DejaVuSans-38" transform="translate(338.232422 0)"/>
     <use xlink:href="#DejaVuSans-20" transform="translate(401.855469 0)"/>
     <use xlink:href="#DejaVuSans-3d" transform="translate(433.642578 0)"/>
     <use xlink:href="#DejaVuSans-20" transform="translate(517.431641 0)"/>
     <use xlink:href="#DejaVuSans-32" transform="translate(549.21875 0)"/>
     <use xlink:href="#DejaVuSans-221a" transform="translate(612.841797 0)"/>
     <use xlink:href="#DejaVuSans-32" transform="translate(676.5625 0)"/>
     <use xlink:href="#DejaVuSans-20" transform="translate(740.185547 0)"/>
     <use xlink:href="#DejaVuSans-20" transform="translate(771.972656 0)"/>
     <use xlink:href="#DejaVuSans-20" transform="translate(803.759766 0)"/>
     <use xlink:href="#DejaVuSans-28" transform="translate(835.546875 0)"/>
     <use xlink:href="#DejaVuSans-63" transform="translate(874.560547 0)"/>
     <use xlink:href="#DejaVuSans-6c" transform="translate(929.541016 0)"/>
     <use xlink:href="#DejaVuSans-61" transform="translate(957.324219 0)"/>
     <use xlink:href="#DejaVuSans-73" transform="translate(1018.603516 0)"/>
     <use xlink:href="#DejaVuSans-73" transform="translate(1070.703125 0)"/>
     <use xlink:href="#DejaVuSans-69" transform="translate(1122.802734 0)"/>
     <use xlink:href="#DejaVuSans-63" transform="translate(1150.585938 0)"/>
     <use xlink:href="#DejaVuSans-61" transform="translate(1205.566406 0)"/>
     <use xlink:href="#DejaVuSans-6c" transform="translate(1266.845703 0)"/>
     <use xlink:href="#DejaVuSans-20" transform="translate(1294.628906 0)"/>
     <use xlink:href="#DejaVuSans-62" transform="translate(1326.416016 0)"/>
     <use xlink:href="#DejaVuSans-6f" transform="translate(1389.892578 0)"/>
     <use xlink:href="#DejaVuSans-75" transform="translate(1451.074219 0)"/>
     <use xlink:href="#DejaVuSans-6e" transform="translate(1514.453125 0)"/>
     <use xlink:href="#DejaVuSans-64" transform="translate(1577.832031 0)"/>
     <use xlink:href="#DejaVuSans-20" transform="translate(1641.308594 0)"/>
     <use xlink:href="#DejaVuSans-7c" transform="translate(1673.095703 0)"/>
     <use xlink:href="#DejaVuSans-53" transform="translate(1706.787109 0)"/>
     <use xlink:href="#DejaVuSans-7c" transform="translate(1770.263672 0)"/>
     <use xlink:href="#DejaVuSans-20" transform="translate(1803.955078 0)"/>
     <use xlink:href="#DejaVuSans-2264" transform="translate(1835.742188 0)"/>
     <use xlink:href="#DejaVuSans-20" transform="translate(1919.53125 0)"/>
     <use xlink:href="#DejaVuSans-32" transform="translate(1951.318359 0)"/>
     <use xlink:href="#DejaVuSans-2c" transform="translate(2014.941406 0)"/>
     <use xlink:href="#DejaVuSans-20" transform="translate(2046.728516 0)"/>
     <use xlink:href="#DejaVuSans-54" transform="translate(2078.515625 0)"/>
     <use xlink:href="#DejaVuSans-73" transform="translate(2123.099609 0)"/>
     <use xlink:href="#DejaVuSans-69" transform="translate(2175.199219 0)"/>
     <use xlink:href="#DejaVuSans-72" transform="translate(2202.982422 0)"/>
     <use xlink:href="#DejaVuSans-65" transform="translate(2241.845703 0)"/>
     <use xlink:href="#DejaVuSans-6c" transform="translate(2303.369141 0)"/>
     <use xlink:href="#DejaVuSans-73" transform="translate(2331.152344 0)"/>
     <use xlink:href="#DejaVuSans-6f" transform="translate(2383.251953 0)"/>
     <use xlink:href="#DejaVuSans-6e" transform="translate(2444.433594 0)"/>
     <use xlink:href="#DejaVuSans-20" transform="translate(2507.8125 0)"/>
     <use xlink:href="#DejaVuSans-62" transform="translate(2539.599609 0)"/>
     <use xlink:href="#DejaVuSans-6f" transform="translate(2603.076172 0)"/>
     <use xlink:href="#DejaVuSans-75" transform="translate(2664.257812 0)"/>
     <use xlink:href="#DejaVuSans-6e" transform="translate(2727.636719 0)"/>
     <use xlink:href="#DejaVuSans-64" transform="translate(2791.015625 0)"/>
     <use xlink:href="#DejaVuSans-20" transform="translate(2854.492188 0)"/>
     <use xlink:href="#DejaVuSans-32" transform="translate(2886.279297 0)"/>
     <use xlink:href="#DejaVuSans-221a" transform="translate(2949.902344 0)"/>
     <use xlink:href="#DejaVuSans-32" transform="translate(3013.623047 0)"/>
     <use xlink:href="#DejaVuSans-20" transform="translate(3077.246094 0)"/>
     <use xlink:href="#DejaVuSans-2248" transform="translate(3109.033203 0)"/>
     <use xlink:href="#DejaVuSans-20" transform="translate(3192.822266 0)"/>
     <use xlink:href="#DejaVuSans-32" transform="translate(3224.609375 0)"/>
     <use xlink:href="#DejaVuSans-2e" transform="translate(3288.232422 0)"/>
     <use xlink:href="#DejaVuSans-38" transform="translate(3320.019531 0)"/>
     <use xlink:href="#DejaVuSans-32" transform="translate(3383.642578 0)"/>
     <use xlink:href="#DejaVuSans-38" transform="translate(3447.265625 0)"/>
     <use xlink:href="#DejaVuSans-29" transform="translate(3510.888672 0)"/>
    </g>
   </g>
   <g id="patch_6">
    <path d="M 237.6 217.545882 
Q 301.870588 217.545882 363.457895 217.545882 
" clip-path="url(#p6663c68255)" style="fill: none; stroke: #56b4e9; stroke-width: 2.4; stroke-linecap: round"/>
    <path d="M 357.057895 214.345882 
L 363.457895 217.545882 
L 357.057895 220.745882 
z
" clip-path="url(#p6663c68255)" style="fill: #56b4e9; stroke: #56b4e9; stroke-width: 2.4; stroke-linecap: round"/>
   </g>
   <g id="patch_7">
    <path d="M 237.6 217.545882 
Q 237.6 153.275294 237.6 91.687987 
" clip-path="url(#p6663c68255)" style="fill: none; stroke: #56b4e9; stroke-width: 2.4; stroke-linecap: round"/>
    <path d="M 234.4 98.087987 
L 237.6 91.687987 
L 240.8 98.087987 
z
" clip-path="url(#p6663c68255)" style="fill: #56b4e9; stroke: #56b4e9; stroke-width: 2.4; stroke-linecap: round"/>
   </g>
   <g id="patch_8">
    <path d="M 237.6 217.545882 
Q 283.046169 172.099714 326.594971 128.550911 
" clip-path="url(#p6663c68255)" style="fill: none; stroke-dasharray: 9.6,7.2; stroke-dashoffset: 0; stroke: #0072b2; stroke-width: 2.4; stroke-linecap: round"/>
    <path d="M 319.806746 130.813653 
L 326.594971 128.550911 
L 324.332229 135.339137 
z
" clip-path="url(#p6663c68255)" style="fill: #0072b2; stroke-dasharray: 9.6,7.2; stroke-dashoffset: 0; stroke: #0072b2; stroke-width: 2.4; stroke-linecap: round"/>
   </g>
   <g id="patch_9">
    <path d="M 237.6 217.545882 
Q 192.153831 172.099714 148.605029 128.550911 
" clip-path="url(#p6663c68255)" style="fill: none; stroke-dasharray: 9.6,7.2; stroke-dashoffset: 0; stroke: #0072b2; stroke-width: 2.4; stroke-linecap: round"/>
    <path d="M 150.867771 135.339137 
L 148.605029 128.550911 
L 155.393254 130.813653 
z
" clip-path="url(#p6663c68255)" style="fill: #0072b2; stroke-dasharray: 9.6,7.2; stroke-dashoffset: 0; stroke: #0072b2; stroke-width: 2.4; stroke-linecap: round"/>
   </g>
  </g>
 </g>
 <defs>
  <clipPath id="p6663c68255">
   <rect x="31.934118" y="11.88" width="411.331765" height="437.04"/>
  </clipPath>
 </defs>
</svg>
