<!--
  CAJAL SVG Figure
  Book: Quantum Mechanics — Information, Measurement, and Open Systems
  Book-slug: quantum-mechanics-vol4
  Chapter: 09-error-and-the-threshold-theorem
  Figure: 04
  Title: Surface Code Lattice — Distance-5 with Stabilizer Types and Logical Operator
  Type: verification-gap (VG)
  Priority: Critical
  Author: Humanitarians AI Incorporated
  Date: 2026-06-06
  Source: pantry/09-error-and-the-threshold-theorem-cajal.md
-->
<svg viewBox="0 0 700 420" xmlns="http://www.w3.org/2000/svg"
     role="img" aria-labelledby="fig-title-09-04">
  <title id="fig-title-09-04">Surface Code Lattice — Distance-5 with Stabilizer Types and Logical Operator Chain</title>
  <desc>A distance-5 surface code lattice showing 25 data qubits at vertices, plaquette syndrome qubits as blue squares at face centers, and star syndrome qubits as orange circles at boundary positions. One plaquette and one star stabilizer are highlighted with their four-qubit arms. A green logical operator chain crosses the lattice from left to right boundary.</desc>
  <metadata>
    <cajal:figure xmlns:cajal="https://bearbrown.ai/cajal/1.0"
      book="Quantum Mechanics — Information, Measurement, and Open Systems"
      book-slug="quantum-mechanics-vol4"
      chapter="09-error-and-the-threshold-theorem"
      figure-number="04"
      figure-title="Surface Code Lattice — Distance-5"
      figure-slug="surface-code-lattice-d5"
      figure-type="verification-gap"
      priority="Critical"
      author="Humanitarians AI Incorporated"
      date-generated="2026-06-06"
      source-file="pantry/09-error-and-the-threshold-theorem-cajal.md"/>
  </metadata>

  <!-- Canvas -->
  <rect width="700" height="420" fill="#FFFFFF"/>

  <!-- Title -->
  <text x="350" y="22" text-anchor="middle" font-family="'EB Garamond','Garamond',Georgia,serif" font-size="14" font-weight="400" fill="#2a1a0e">Surface Code Lattice — Distance-5 (d&#x202F;=&#x202F;5)</text>

  <!-- Lattice parameters:
       5x5 grid of data qubits
       spacing = 56px
       Start x=110, y=48, end x=110+4*56=334, y=48+4*56=272
       Data qubit positions: (110+i*56, 48+j*56) for i,j = 0..4
       Plaquette syndrome at center of each interior face: (110+(i+0.5)*56, 48+(j+0.5)*56)
       i=0..3, j=0..3 → 16 interior plaquettes -->

  <!-- Lattice edges (light gray) -->
  <!-- Horizontal edges -->
  <line x1="110" y1="48" x2="334" y2="48" stroke="#D4D4D4" stroke-width="0.75"/>
  <line x1="110" y1="104" x2="334" y2="104" stroke="#D4D4D4" stroke-width="0.75"/>
  <line x1="110" y1="160" x2="334" y2="160" stroke="#D4D4D4" stroke-width="0.75"/>
  <line x1="110" y1="216" x2="334" y2="216" stroke="#D4D4D4" stroke-width="0.75"/>
  <line x1="110" y1="272" x2="334" y2="272" stroke="#D4D4D4" stroke-width="0.75"/>
  <!-- Vertical edges -->
  <line x1="110" y1="48" x2="110" y2="272" stroke="#D4D4D4" stroke-width="0.75"/>
  <line x1="166" y1="48" x2="166" y2="272" stroke="#D4D4D4" stroke-width="0.75"/>
  <line x1="222" y1="48" x2="222" y2="272" stroke="#D4D4D4" stroke-width="0.75"/>
  <line x1="278" y1="48" x2="278" y2="272" stroke="#D4D4D4" stroke-width="0.75"/>
  <line x1="334" y1="48" x2="334" y2="272" stroke="#D4D4D4" stroke-width="0.75"/>

  <!-- Highlighted plaquette in upper-left (i=0,j=0): center (138,76) -->
  <!-- Arms to four surrounding data qubits: (110,48), (166,48), (110,104), (166,104) -->
  <line x1="138" y1="76" x2="113" y2="51" stroke="#2a1a0e" stroke-width="2"/>
  <line x1="138" y1="76" x2="163" y2="51" stroke="#2a1a0e" stroke-width="2"/>
  <line x1="138" y1="76" x2="113" y2="101" stroke="#2a1a0e" stroke-width="2"/>
  <line x1="138" y1="76" x2="163" y2="101" stroke="#2a1a0e" stroke-width="2"/>

  <!-- Highlighted star in lower-right (i=3,j=3): center (306,244) -->
  <!-- Arms to (278,216), (334,216), (278,272), (334,272) -->
  <line x1="306" y1="244" x2="281" y2="219" stroke="#C8860E" stroke-width="2"/>
  <line x1="306" y1="244" x2="331" y2="219" stroke="#C8860E" stroke-width="2"/>
  <line x1="306" y1="244" x2="281" y2="269" stroke="#C8860E" stroke-width="2"/>
  <line x1="306" y1="244" x2="331" y2="269" stroke="#C8860E" stroke-width="2"/>

  <!-- Logical operator chain: middle row j=2, y=160, from x=110 to x=334 -->
  <!-- Connect: (110,160)-(166,160)-(222,160)-(278,160)-(334,160) -->
  <line x1="113" y1="160" x2="163" y2="160" stroke="#787878" stroke-width="2.5"/>
  <line x1="169" y1="160" x2="219" y2="160" stroke="#787878" stroke-width="2.5"/>
  <line x1="225" y1="160" x2="275" y2="160" stroke="#787878" stroke-width="2.5"/>
  <line x1="281" y1="160" x2="331" y2="160" stroke="#787878" stroke-width="2.5"/>

  <!-- All plaquette syndrome qubits (squares) -->
  <!-- Row 0-1 faces (j=0): centers at y=76, x=138,194,250,306 -->
  <rect x="130" y="68" width="16" height="16" fill="#2a1a0e"/>
  <rect x="186" y="68" width="16" height="16" fill="#2a1a0e"/>
  <rect x="242" y="68" width="16" height="16" fill="#2a1a0e"/>
  <rect x="298" y="68" width="16" height="16" fill="#2a1a0e"/>
  <!-- j=1: y=132 -->
  <rect x="130" y="124" width="16" height="16" fill="#2a1a0e"/>
  <rect x="186" y="124" width="16" height="16" fill="#2a1a0e"/>
  <rect x="242" y="124" width="16" height="16" fill="#2a1a0e"/>
  <rect x="298" y="124" width="16" height="16" fill="#2a1a0e"/>
  <!-- j=2: y=188 -->
  <rect x="130" y="180" width="16" height="16" fill="#2a1a0e"/>
  <rect x="186" y="180" width="16" height="16" fill="#2a1a0e"/>
  <rect x="242" y="180" width="16" height="16" fill="#2a1a0e"/>
  <rect x="298" y="180" width="16" height="16" fill="#2a1a0e"/>
  <!-- j=3: y=244 -->
  <rect x="130" y="236" width="16" height="16" fill="#2a1a0e"/>
  <rect x="186" y="236" width="16" height="16" fill="#2a1a0e"/>
  <rect x="242" y="236" width="16" height="16" fill="#2a1a0e"/>
  <!-- Highlighted plaquette shown specially - already drawn as larger square to indicate it -->
  <rect x="298" y="236" width="16" height="16" fill="#2a1a0e"/>

  <!-- Star syndrome qubits (circles) on boundary/interleaved positions -->
  <!-- In surface code, stars and plaquettes are on alternate faces in checkerboard -->
  <!-- Stars (Z-stabilizers): at boundary edge midpoints and interior positions -->
  <!-- Approximate positions for d=5: alternate to plaquettes -->
  <!-- Stars at corners/edges visible in standard layout -->
  <!-- Top edge stars: x=166,278, y=48-(half outside) — boundary -->
  <circle cx="166" cy="34" r="8" fill="#C8860E"/>
  <circle cx="278" cy="34" r="8" fill="#C8860E"/>
  <!-- Bottom edge stars: y=272+14 -->
  <circle cx="110" cy="286" r="8" fill="#C8860E"/>
  <circle cx="222" cy="286" r="8" fill="#C8860E"/>
  <circle cx="334" cy="286" r="8" fill="#C8860E"/>
  <!-- Left edge -->
  <circle cx="96" cy="76" r="8" fill="#C8860E"/>
  <circle cx="96" cy="188" r="8" fill="#C8860E"/>
  <!-- Right edge -->
  <circle cx="348" cy="132" r="8" fill="#C8860E"/>
  <circle cx="348" cy="244" r="8" fill="#C8860E"/>
  <!-- Interior stars (alternating) -->
  <circle cx="194" cy="76" r="8" fill="#C8860E"/>
  <circle cx="250" cy="76" r="8" fill="#C8860E"/>
  <circle cx="138" cy="132" r="8" fill="#C8860E"/>
  <circle cx="250" cy="132" r="8" fill="#C8860E"/>
  <circle cx="194" cy="188" r="8" fill="#C8860E"/>
  <circle cx="306" cy="188" r="8" fill="#C8860E"/>
  <circle cx="138" cy="244" r="8" fill="#C8860E"/>
  <circle cx="250" cy="244" r="8" fill="#C8860E"/>

  <!-- Highlighted star (larger) to match highlight of plaquette -->
  <circle cx="306" cy="244" r="10" fill="#C8860E" stroke="#C8860E" stroke-width="1.5"/>

  <!-- Highlighted plaquette (larger) -->
  <rect x="129" y="67" width="18" height="18" fill="#2a1a0e" stroke="#2a1a0e" stroke-width="2"/>

  <!-- Data qubits (small light gray circles) — draw after syndrome qubits -->
  <!-- Row j=0: y=48 -->
  <circle cx="110" cy="48" r="5" fill="#D4D4D4" stroke="#ADADAD" stroke-width="0.75"/>
  <circle cx="166" cy="48" r="5" fill="#D4D4D4" stroke="#ADADAD" stroke-width="0.75"/>
  <circle cx="222" cy="48" r="5" fill="#D4D4D4" stroke="#ADADAD" stroke-width="0.75"/>
  <circle cx="278" cy="48" r="5" fill="#D4D4D4" stroke="#ADADAD" stroke-width="0.75"/>
  <circle cx="334" cy="48" r="5" fill="#D4D4D4" stroke="#ADADAD" stroke-width="0.75"/>
  <!-- j=1: y=104 -->
  <circle cx="110" cy="104" r="5" fill="#D4D4D4" stroke="#ADADAD" stroke-width="0.75"/>
  <circle cx="166" cy="104" r="5" fill="#D4D4D4" stroke="#ADADAD" stroke-width="0.75"/>
  <circle cx="222" cy="104" r="5" fill="#D4D4D4" stroke="#ADADAD" stroke-width="0.75"/>
  <circle cx="278" cy="104" r="5" fill="#D4D4D4" stroke="#ADADAD" stroke-width="0.75"/>
  <circle cx="334" cy="104" r="5" fill="#D4D4D4" stroke="#ADADAD" stroke-width="0.75"/>
  <!-- j=2: y=160 — logical chain qubits highlighted -->
  <circle cx="110" cy="160" r="7" fill="#787878" stroke="#787878" stroke-width="1"/>
  <circle cx="166" cy="160" r="7" fill="#787878" stroke="#787878" stroke-width="1"/>
  <circle cx="222" cy="160" r="7" fill="#787878" stroke="#787878" stroke-width="1"/>
  <circle cx="278" cy="160" r="7" fill="#787878" stroke="#787878" stroke-width="1"/>
  <circle cx="334" cy="160" r="7" fill="#787878" stroke="#787878" stroke-width="1"/>
  <!-- j=3: y=216 -->
  <circle cx="110" cy="216" r="5" fill="#D4D4D4" stroke="#ADADAD" stroke-width="0.75"/>
  <circle cx="166" cy="216" r="5" fill="#D4D4D4" stroke="#ADADAD" stroke-width="0.75"/>
  <circle cx="222" cy="216" r="5" fill="#D4D4D4" stroke="#ADADAD" stroke-width="0.75"/>
  <circle cx="278" cy="216" r="5" fill="#D4D4D4" stroke="#ADADAD" stroke-width="0.75"/>
  <circle cx="334" cy="216" r="5" fill="#D4D4D4" stroke="#ADADAD" stroke-width="0.75"/>
  <!-- j=4: y=272 -->
  <circle cx="110" cy="272" r="5" fill="#D4D4D4" stroke="#ADADAD" stroke-width="0.75"/>
  <circle cx="166" cy="272" r="5" fill="#D4D4D4" stroke="#ADADAD" stroke-width="0.75"/>
  <circle cx="222" cy="272" r="5" fill="#D4D4D4" stroke="#ADADAD" stroke-width="0.75"/>
  <circle cx="278" cy="272" r="5" fill="#D4D4D4" stroke="#ADADAD" stroke-width="0.75"/>
  <circle cx="334" cy="272" r="5" fill="#D4D4D4" stroke="#ADADAD" stroke-width="0.75"/>

  <!-- Legend and annotations on right side -->
  <rect x="390" y="40" width="278" height="310" fill="#F5F5F5" stroke="#D4D4D4" stroke-width="0.75"/>
  <text x="529" y="58" text-anchor="middle" font-family="'Inter',-apple-system,'Helvetica Neue',sans-serif" font-size="11" fill="#2a1a0e">Surface code d&#x202F;=&#x202F;5</text>

  <!-- Legend items -->
  <circle cx="418" cy="82" r="5" fill="#D4D4D4" stroke="#ADADAD" stroke-width="0.75"/>
  <text x="432" y="86" font-family="'Inter',-apple-system,'Helvetica Neue',sans-serif" font-size="10" fill="#2a1a0e">Data qubit (25 total)</text>

  <rect x="410" y="104" width="14" height="14" fill="#2a1a0e"/>
  <text x="432" y="115" font-family="'Inter',-apple-system,'Helvetica Neue',sans-serif" font-size="10" fill="#2a1a0e">X-stabilizer / plaquette syndrome</text>
  <text x="432" y="127" font-family="'Inter',-apple-system,'Helvetica Neue',sans-serif" font-size="10" fill="#545454">(detects Z errors)</text>

  <circle cx="418" cy="150" r="8" fill="#C8860E"/>
  <text x="432" y="154" font-family="'Inter',-apple-system,'Helvetica Neue',sans-serif" font-size="10" fill="#2a1a0e">Z-stabilizer / star syndrome</text>
  <text x="432" y="166" font-family="'Inter',-apple-system,'Helvetica Neue',sans-serif" font-size="10" fill="#545454">(detects X errors)</text>

  <circle cx="418" cy="190" r="7" fill="#787878"/>
  <line x1="432" y1="190" x2="462" y2="190" stroke="#787878" stroke-width="2.5"/>
  <text x="470" y="194" font-family="'Inter',-apple-system,'Helvetica Neue',sans-serif" font-size="10" fill="#2a1a0e">Logical Z&#x1d39; chain</text>
  <text x="432" y="206" font-family="'Inter',-apple-system,'Helvetica Neue',sans-serif" font-size="10" fill="#545454">(minimum weight d&#x202F;=&#x202F;5)</text>

  <!-- Explanation text -->
  <text x="400" y="240" font-family="'Inter',-apple-system,'Helvetica Neue',sans-serif" font-size="10" fill="#545454">Code distance d&#x202F;=&#x202F;5: any</text>
  <text x="400" y="253" font-family="'Inter',-apple-system,'Helvetica Neue',sans-serif" font-size="10" fill="#545454">error pattern up to &#x230a;(d&#x2212;1)/2&#x230b;&#x202F;=&#x202F;2</text>
  <text x="400" y="266" font-family="'Inter',-apple-system,'Helvetica Neue',sans-serif" font-size="10" fill="#545454">simultaneous errors is correctable</text>

  <text x="400" y="290" font-family="'Inter',-apple-system,'Helvetica Neue',sans-serif" font-size="10" fill="#2a1a0e">Highlighted plaquette (upper-left):</text>
  <text x="400" y="303" font-family="'JetBrains Mono','Fira Code','Courier New',monospace" font-size="10" fill="#2a1a0e">g&#x1d36; = X&#x2081;X&#x2082;X&#x2083;X&#x2084;</text>
  <text x="400" y="320" font-family="'Inter',-apple-system,'Helvetica Neue',sans-serif" font-size="10" fill="#C8860E">Highlighted star (lower-right):</text>
  <text x="400" y="333" font-family="'JetBrains Mono','Fira Code','Courier New',monospace" font-size="10" fill="#C8860E">g&#x1d3b; = Z&#x2081;Z&#x2082;Z&#x2083;Z&#x2084;</text>

  <!-- Physical count -->
  <rect x="390" y="358" width="278" height="28" fill="#FFFFFF" stroke="#D4D4D4" stroke-width="0.75"/>
  <text x="529" y="372" text-anchor="middle" font-family="'JetBrains Mono','Fira Code','Courier New',monospace" font-size="10" fill="#2a1a0e">25 data + 24 syndrome = 49 qubits total</text>
  <text x="529" y="383" text-anchor="middle" font-family="'Inter',-apple-system,'Helvetica Neue',sans-serif" font-size="9" fill="#545454">encoding 1 logical qubit — overhead: 49&#xd7;</text>

  <!-- Logical chain label -->
  <text x="222" y="295" text-anchor="middle" font-family="'Inter',-apple-system,'Helvetica Neue',sans-serif" font-size="10" fill="#787878">logical operator</text>
  <text x="222" y="308" text-anchor="middle" font-family="'JetBrains Mono','Fira Code','Courier New',monospace" font-size="10" fill="#787878">Z&#x1d39; = Z&#x2081;Z&#x2082;Z&#x2083;Z&#x2084;Z&#x2085;</text>
  <line x1="222" y1="313" x2="222" y2="325" stroke="#787878" stroke-width="0.75" stroke-dasharray="2 2"/>
  <polygon points="218,325 222,333 226,325" fill="#787878" stroke="none"/>

</svg>
