<!--
  CAJAL SVG Figure
  Book: Quantum Mechanics — Information, Measurement, and Open Systems
  Book-slug: quantum-mechanics-vol4
  Chapter: 09-error-and-the-threshold-theorem
  Figure: 06
  Title: Fault Tolerance vs Error Correction — Error Propagation in Syndrome Circuits
  Type: mechanism-chart (MC)
  Priority: Important
  Author: Humanitarians AI Incorporated
  Date: 2026-06-06
  Source: pantry/09-error-and-the-threshold-theorem-cajal.md
-->
<svg viewBox="0 0 700 420" xmlns="http://www.w3.org/2000/svg"
     role="img" aria-labelledby="fig-title-09-06">
  <title id="fig-title-09-06">Fault Tolerance vs Error Correction — Error Propagation Comparison</title>
  <desc>Two-panel comparison. Left panel shows non-fault-tolerant circuit where a single error on the ancilla propagates to multiple data qubits. Right panel shows a fault-tolerant surface code circuit where a single ancilla error propagates to at most one data qubit.</desc>
  <metadata>
    <cajal:figure xmlns:cajal="https://bearbrown.ai/cajal/1.0"
      book="Quantum Mechanics — Information, Measurement, and Open Systems"
      book-slug="quantum-mechanics-vol4"
      chapter="09-error-and-the-threshold-theorem"
      figure-number="06"
      figure-title="Fault Tolerance vs Error Correction — Error Propagation"
      figure-slug="fault-tolerance-error-propagation"
      figure-type="mechanism-chart"
      priority="Important"
      author="Humanitarians AI Incorporated"
      date-generated="2026-06-06"
      source-file="pantry/09-error-and-the-threshold-theorem-cajal.md"/>
  </metadata>

  <defs>
    <marker id="arrow-09-06" markerWidth="8" markerHeight="6" refX="7" refY="3" orient="auto">
      <polygon points="0 0, 8 3, 0 6" fill="#2a1a0e"/>
    </marker>
    <marker id="arrow-red-09-06" markerWidth="8" markerHeight="6" refX="7" refY="3" orient="auto">
      <polygon points="0 0, 8 3, 0 6" fill="#C8102E"/>
    </marker>
  </defs>

  <!-- Canvas -->
  <rect width="700" height="420" fill="#FFFFFF"/>

  <!-- Title -->
  <text x="350" y="22" text-anchor="middle" font-family="'EB Garamond','Garamond',Georgia,serif" font-size="14" font-weight="400" fill="#2a1a0e">Fault Tolerance — Error Propagation in Syndrome Extraction</text>

  <!-- ===== LEFT PANEL: Non-fault-tolerant ===== -->
  <rect x="32" y="38" width="290" height="360" fill="#F5F5F5" stroke="#D4D4D4" stroke-width="0.75"/>
  <text x="177" y="56" text-anchor="middle" font-family="'Inter',-apple-system,'Helvetica Neue',sans-serif" font-size="11" fill="#C8102E">Non-fault-tolerant</text>
  <text x="177" y="70" text-anchor="middle" font-family="'Inter',-apple-system,'Helvetica Neue',sans-serif" font-size="10" fill="#545454">single error → 4 corrupted data qubits</text>

  <!-- Circuit wires — horizontal lines -->
  <!-- Ancilla wire at y=130 -->
  <!-- Data qubit wires at y=160,190,220,250,280 (5 data qubits) -->
  <!-- Ancilla label -->
  <text x="50" y="134" text-anchor="end" font-family="'JetBrains Mono','Fira Code','Courier New',monospace" font-size="10" fill="#ADADAD">a</text>
  <line x1="52" y1="130" x2="305" y2="130" stroke="#ADADAD" stroke-width="1.25"/>

  <text x="50" y="164" text-anchor="end" font-family="'JetBrains Mono','Fira Code','Courier New',monospace" font-size="10" fill="#D4D4D4">q&#x2081;</text>
  <line x1="52" y1="160" x2="305" y2="160" stroke="#D4D4D4" stroke-width="1"/>
  <text x="50" y="194" text-anchor="end" font-family="'JetBrains Mono','Fira Code','Courier New',monospace" font-size="10" fill="#D4D4D4">q&#x2082;</text>
  <line x1="52" y1="190" x2="305" y2="190" stroke="#D4D4D4" stroke-width="1"/>
  <text x="50" y="224" text-anchor="end" font-family="'JetBrains Mono','Fira Code','Courier New',monospace" font-size="10" fill="#D4D4D4">q&#x2083;</text>
  <line x1="52" y1="220" x2="305" y2="220" stroke="#D4D4D4" stroke-width="1"/>
  <text x="50" y="254" text-anchor="end" font-family="'JetBrains Mono','Fira Code','Courier New',monospace" font-size="10" fill="#D4D4D4">q&#x2084;</text>
  <line x1="52" y1="250" x2="305" y2="250" stroke="#D4D4D4" stroke-width="1"/>
  <text x="50" y="284" text-anchor="end" font-family="'JetBrains Mono','Fira Code','Courier New',monospace" font-size="10" fill="#D4D4D4">q&#x2085;</text>
  <line x1="52" y1="280" x2="305" y2="280" stroke="#D4D4D4" stroke-width="1"/>

  <!-- Error mark on ancilla: X symbol at x=90 -->
  <line x1="83" y1="122" x2="97" y2="138" stroke="#C8102E" stroke-width="2"/>
  <line x1="83" y1="138" x2="97" y2="122" stroke="#C8102E" stroke-width="2"/>
  <!-- Circle around X -->
  <circle cx="90" cy="130" r="10" fill="none" stroke="#C8102E" stroke-width="1.5"/>

  <!-- CNOT gates from ancilla to all 5 data qubits -->
  <!-- CNOT at x=130: control on ancilla (y=130), targets on q1-q5 (y=160..280) -->
  <circle cx="130" cy="130" r="4" fill="#ADADAD"/>
  <line x1="130" y1="134" x2="130" y2="276" stroke="#ADADAD" stroke-width="0.75" stroke-dasharray="2 2"/>
  <!-- CNOT targets -->
  <circle cx="130" cy="160" r="8" fill="none" stroke="#ADADAD" stroke-width="1"/>
  <line x1="122" y1="160" x2="138" y2="160" stroke="#ADADAD" stroke-width="1"/>
  <line x1="130" y1="152" x2="130" y2="168" stroke="#ADADAD" stroke-width="1"/>

  <circle cx="155" cy="130" r="4" fill="#ADADAD"/>
  <line x1="155" y1="134" x2="155" y2="246" stroke="#ADADAD" stroke-width="0.75" stroke-dasharray="2 2"/>
  <circle cx="155" cy="190" r="8" fill="none" stroke="#ADADAD" stroke-width="1"/>
  <line x1="147" y1="190" x2="163" y2="190" stroke="#ADADAD" stroke-width="1"/>
  <line x1="155" y1="182" x2="155" y2="198" stroke="#ADADAD" stroke-width="1"/>

  <circle cx="180" cy="130" r="4" fill="#ADADAD"/>
  <line x1="180" y1="134" x2="180" y2="216" stroke="#ADADAD" stroke-width="0.75" stroke-dasharray="2 2"/>
  <circle cx="180" cy="220" r="8" fill="none" stroke="#ADADAD" stroke-width="1"/>
  <line x1="172" y1="220" x2="188" y2="220" stroke="#ADADAD" stroke-width="1"/>
  <line x1="180" y1="212" x2="180" y2="228" stroke="#ADADAD" stroke-width="1"/>

  <circle cx="205" cy="130" r="4" fill="#ADADAD"/>
  <line x1="205" y1="134" x2="205" y2="246" stroke="#ADADAD" stroke-width="0.75" stroke-dasharray="2 2"/>
  <circle cx="205" cy="250" r="8" fill="none" stroke="#ADADAD" stroke-width="1"/>
  <line x1="197" y1="250" x2="213" y2="250" stroke="#ADADAD" stroke-width="1"/>
  <line x1="205" y1="242" x2="205" y2="258" stroke="#ADADAD" stroke-width="1"/>

  <circle cx="230" cy="130" r="4" fill="#ADADAD"/>
  <line x1="230" y1="134" x2="230" y2="276" stroke="#ADADAD" stroke-width="0.75" stroke-dasharray="2 2"/>
  <circle cx="230" cy="280" r="8" fill="none" stroke="#ADADAD" stroke-width="1"/>
  <line x1="222" y1="280" x2="238" y2="280" stroke="#ADADAD" stroke-width="1"/>
  <line x1="230" y1="272" x2="230" y2="288" stroke="#ADADAD" stroke-width="1"/>

  <!-- Propagated error marks on data qubits (4 of 5 corrupted) -->
  <!-- Error propagated to q1,q2,q3,q4 (not q5 after error mark on ancilla) -->
  <!-- Actually: X on ancilla before all CNOTs → propagates to all targets -->
  <line x1="270" y1="153" x2="284" y2="167" stroke="#C8102E" stroke-width="1.5"/>
  <line x1="270" y1="167" x2="284" y2="153" stroke="#C8102E" stroke-width="1.5"/>
  <line x1="270" y1="183" x2="284" y2="197" stroke="#C8102E" stroke-width="1.5"/>
  <line x1="270" y1="197" x2="284" y2="183" stroke="#C8102E" stroke-width="1.5"/>
  <line x1="270" y1="213" x2="284" y2="227" stroke="#C8102E" stroke-width="1.5"/>
  <line x1="270" y1="227" x2="284" y2="213" stroke="#C8102E" stroke-width="1.5"/>
  <line x1="270" y1="243" x2="284" y2="257" stroke="#C8102E" stroke-width="1.5"/>
  <line x1="270" y1="257" x2="284" y2="243" stroke="#C8102E" stroke-width="1.5"/>
  <!-- q5 clean -->
  <circle cx="277" cy="280" r="5" fill="#787878"/>

  <!-- Count label -->
  <text x="177" y="320" text-anchor="middle" font-family="'Inter',-apple-system,'Helvetica Neue',sans-serif" font-size="11" fill="#C8102E">4 data qubit errors</text>
  <text x="177" y="335" text-anchor="middle" font-family="'Inter',-apple-system,'Helvetica Neue',sans-serif" font-size="10" fill="#545454">exceeds code distance — uncorrectable</text>
  <text x="177" y="360" text-anchor="middle" font-family="'Inter',-apple-system,'Helvetica Neue',sans-serif" font-size="9" fill="#545454">one ancilla error → logical failure</text>

  <!-- Divider -->
  <line x1="345" y1="38" x2="345" y2="398" stroke="#D4D4D4" stroke-width="1" stroke-dasharray="4 3"/>
  <text x="350" y="210" text-anchor="middle" transform="rotate(-90,350,210)" font-family="'Inter',-apple-system,'Helvetica Neue',sans-serif" font-size="9" fill="#545454">redesign</text>

  <!-- ===== RIGHT PANEL: Fault-tolerant ===== -->
  <rect x="378" y="38" width="290" height="360" fill="#F5F5F5" stroke="#D4D4D4" stroke-width="0.75"/>
  <text x="523" y="56" text-anchor="middle" font-family="'Inter',-apple-system,'Helvetica Neue',sans-serif" font-size="11" fill="#787878">Fault-tolerant (surface code)</text>
  <text x="523" y="70" text-anchor="middle" font-family="'Inter',-apple-system,'Helvetica Neue',sans-serif" font-size="10" fill="#545454">single error → at most 1 corrupted qubit</text>

  <!-- Ancilla wire and 4 data qubits -->
  <text x="396" y="134" text-anchor="end" font-family="'JetBrains Mono','Fira Code','Courier New',monospace" font-size="10" fill="#ADADAD">a</text>
  <line x1="398" y1="130" x2="651" y2="130" stroke="#ADADAD" stroke-width="1.25"/>

  <text x="396" y="174" text-anchor="end" font-family="'JetBrains Mono','Fira Code','Courier New',monospace" font-size="10" fill="#D4D4D4">q&#x2081;</text>
  <line x1="398" y1="170" x2="651" y2="170" stroke="#D4D4D4" stroke-width="1"/>
  <text x="396" y="214" text-anchor="end" font-family="'JetBrains Mono','Fira Code','Courier New',monospace" font-size="10" fill="#D4D4D4">q&#x2082;</text>
  <line x1="398" y1="210" x2="651" y2="210" stroke="#D4D4D4" stroke-width="1"/>
  <text x="396" y="254" text-anchor="end" font-family="'JetBrains Mono','Fira Code','Courier New',monospace" font-size="10" fill="#D4D4D4">q&#x2083;</text>
  <line x1="398" y1="250" x2="651" y2="250" stroke="#D4D4D4" stroke-width="1"/>
  <text x="396" y="294" text-anchor="end" font-family="'JetBrains Mono','Fira Code','Courier New',monospace" font-size="10" fill="#D4D4D4">q&#x2084;</text>
  <line x1="398" y1="290" x2="651" y2="290" stroke="#D4D4D4" stroke-width="1"/>

  <!-- Error on ancilla (same position) -->
  <line x1="425" y1="122" x2="439" y2="138" stroke="#C8102E" stroke-width="2"/>
  <line x1="425" y1="138" x2="439" y2="122" stroke="#C8102E" stroke-width="2"/>
  <circle cx="432" cy="130" r="10" fill="none" stroke="#C8102E" stroke-width="1.5"/>

  <!-- 4 CNOT gates, each to exactly one data qubit -->
  <circle cx="470" cy="130" r="4" fill="#ADADAD"/>
  <line x1="470" y1="134" x2="470" y2="166" stroke="#ADADAD" stroke-width="0.75"/>
  <circle cx="470" cy="170" r="8" fill="none" stroke="#ADADAD" stroke-width="1"/>
  <line x1="462" y1="170" x2="478" y2="170" stroke="#ADADAD" stroke-width="1"/>
  <line x1="470" y1="162" x2="470" y2="178" stroke="#ADADAD" stroke-width="1"/>

  <circle cx="505" cy="130" r="4" fill="#ADADAD"/>
  <line x1="505" y1="134" x2="505" y2="206" stroke="#ADADAD" stroke-width="0.75"/>
  <circle cx="505" cy="210" r="8" fill="none" stroke="#ADADAD" stroke-width="1"/>
  <line x1="497" y1="210" x2="513" y2="210" stroke="#ADADAD" stroke-width="1"/>
  <line x1="505" y1="202" x2="505" y2="218" stroke="#ADADAD" stroke-width="1"/>

  <circle cx="540" cy="130" r="4" fill="#ADADAD"/>
  <line x1="540" y1="134" x2="540" y2="246" stroke="#ADADAD" stroke-width="0.75"/>
  <circle cx="540" cy="250" r="8" fill="none" stroke="#ADADAD" stroke-width="1"/>
  <line x1="532" y1="250" x2="548" y2="250" stroke="#ADADAD" stroke-width="1"/>
  <line x1="540" y1="242" x2="540" y2="258" stroke="#ADADAD" stroke-width="1"/>

  <circle cx="575" cy="130" r="4" fill="#ADADAD"/>
  <line x1="575" y1="134" x2="575" y2="286" stroke="#ADADAD" stroke-width="0.75"/>
  <circle cx="575" cy="290" r="8" fill="none" stroke="#ADADAD" stroke-width="1"/>
  <line x1="567" y1="290" x2="583" y2="290" stroke="#ADADAD" stroke-width="1"/>
  <line x1="575" y1="282" x2="575" y2="298" stroke="#ADADAD" stroke-width="1"/>

  <!-- Error propagates to at most q1 (first CNOT fires after error) -->
  <!-- But actually: error on ancilla before all CNOTs → propagates to only q1 if structured correctly -->
  <!-- In FT design: ancilla error after k-th CNOT only corrupts k'th qubit -->
  <!-- Show: q1 gets error, q2-q4 are clean -->
  <line x1="618" y1="163" x2="632" y2="177" stroke="#C8102E" stroke-width="1.5"/>
  <line x1="618" y1="177" x2="632" y2="163" stroke="#C8102E" stroke-width="1.5"/>
  <!-- q2-q4 clean -->
  <circle cx="625" cy="210" r="5" fill="#787878"/>
  <circle cx="625" cy="250" r="5" fill="#787878"/>
  <circle cx="625" cy="290" r="5" fill="#787878"/>

  <!-- Count label -->
  <text x="523" y="320" text-anchor="middle" font-family="'Inter',-apple-system,'Helvetica Neue',sans-serif" font-size="11" fill="#787878">at most 1 data qubit error</text>
  <text x="523" y="335" text-anchor="middle" font-family="'Inter',-apple-system,'Helvetica Neue',sans-serif" font-size="10" fill="#545454">within code distance — correctable</text>
  <text x="523" y="360" text-anchor="middle" font-family="'Inter',-apple-system,'Helvetica Neue',sans-serif" font-size="9" fill="#545454">one ancilla error → logical state preserved</text>

  <!-- Key constraint annotation -->
  <rect x="100" y="382" width="500" height="32" fill="#FFFFFF" stroke="#D4D4D4" stroke-width="0.75"/>
  <text x="350" y="396" text-anchor="middle" font-family="'Inter',-apple-system,'Helvetica Neue',sans-serif" font-size="10" fill="#2a1a0e">Fault-tolerance requirement: t-fault circuit must produce &#x2264;t errors — ancilla fan-in bounded by d</text>
  <text x="350" y="408" text-anchor="middle" font-family="'Inter',-apple-system,'Helvetica Neue',sans-serif" font-size="9" fill="#545454">CNOT count per ancilla limited to 4 in surface code stabilizer extraction</text>

</svg>
